<?xml version="1.0" encoding="utf-8"?>
<!-- Generator: Adobe Illustrator 24.1.2, SVG Export Plug-In . SVG Version: 6.00 Build 0)  -->
<svg version="1.1" id="Слой_1" xmlns="http://www.w3.org/2000/svg" xmlns:xlink="http://www.w3.org/1999/xlink" x="0px" y="0px"
	 viewBox="0 0 512 512" style="enable-background:new 0 0 512 512;" xml:space="preserve">
<style type="text/css">
	.st0{fill:#FF9B63;}
	.st1{fill:#F1E8D4;}
	.st2{fill:#F1DBC4;}
	.st3{opacity:0.5;fill:#F1CAA9;enable-background:new    ;}
	.st4{fill:none;stroke:#27213B;stroke-width:1.5;stroke-linecap:round;stroke-linejoin:round;}
	.st5{fill:#EA4856;}
	.st6{fill:#FFFFFF;}
	.st7{fill:#869AB6;}
	.st8{fill:#EA9836;}
	.st9{fill:#FECC68;}
	.st10{fill:#BF3340;}
	.st11{fill:#D15B36;}
	.st12{fill:#27213B;}
</style>
<g>
	<g id="Слой_2_1_">
		<g id="OBJECTS">
			<path class="st0" d="M426.8,512.8H85.2c-25.4,0-46.1-35.2-46.1-78.6v-10C13.4,407.4,0,330,0,256.8S13.5,106.2,39.1,89.4v-10
				C39.1,36,59.8,0.8,85.2,0.8h341.6c25.4,0,46.1,35.2,46.1,78.6v10c25.7,16.7,39.1,94.2,39.1,167.4s-13.5,150.6-39.1,167.4v10.2
				C472.9,477.6,452.2,512.8,426.8,512.8z"/>
			<path class="st1" d="M501.3,256.8c0-83.3-17.1-151.3-38.6-156.8V81.6c0-36.6-17-66.2-38.1-66.2h-337c-21,0-38.1,29.7-38.1,66.4
				v18.4c-21.6,5.3-38.6,73.2-38.6,156.5s16.9,151.4,38.4,156.8V432c0,36.6,17.1,66.4,38.1,66.4h337.2c21.1,0,38.1-29.7,38.1-66.4
				v-18.4C484.2,408.2,501.3,340.1,501.3,256.8z"/>
			<path class="st1" d="M501.3,256.8c0-83.3-17.1-151.3-38.6-156.8V81.6c0-36.6-17-66.2-38.1-66.2h-337c-21,0-38.1,29.7-38.1,66.4
				v18.4c-21.6,5.3-38.6,73.2-38.6,156.5s16.9,151.4,38.4,156.8V432c0,36.6,17.1,66.4,38.1,66.4h337.2c21.1,0,38.1-29.7,38.1-66.4
				v-18.4C484.2,408.2,501.3,340.1,501.3,256.8z"/>
			<path class="st2" d="M462.6,100.2V81.8c0-36.6-17-66.2-38.1-66.2h-41.1l-112,482.6h153.2c21.1,0,38.1-29.7,38.1-66.4v-18.4
				c21.6-5.3,38.6-73.5,38.6-156.6S484.2,105.7,462.6,100.2z"/>
			<path class="st3" d="M380.2,340.9c0,15.5-55.2,28-123.4,28s-123.4-12.4-123.4-28s55.2-28,123.4-28S380.2,325.4,380.2,340.9z"/>
			<path class="st4" d="M501.3,256.8c0-83.3-17.1-151.3-38.6-156.8V81.6c0-36.6-17-66.2-38.1-66.2h-337c-21,0-38.1,29.7-38.1,66.4
				v18.4c-21.6,5.3-38.6,73.2-38.6,156.5s16.9,151.4,38.4,156.8V432c0,36.6,17.1,66.4,38.1,66.4h337.2c21.1,0,38.1-29.7,38.1-66.4
				v-18.4C484.2,408.2,501.3,340.1,501.3,256.8z"/>
			<path class="st4" d="M426.8,512.8H85.2c-25.4,0-46.1-35.2-46.1-78.6v-10C13.4,407.4,0,330,0,256.8S13.5,106.2,39.1,89.4v-10
				C39.1,36,59.8,0.8,85.2,0.8h341.6c25.4,0,46.1,35.2,46.1,78.6v10c25.7,16.7,39.1,94.2,39.1,167.4s-13.5,150.6-39.1,167.4v10.2
				C472.9,477.6,452.2,512.8,426.8,512.8z"/>
			<path class="st4" d="M376.7,223.2c2.7,8.6,8.6,24.9,1.1,31.3"/>
			<path class="st5" d="M159.2,225c9.3,14.8,11,35.4,3.8,46.2c-7.2,10.6-20.5,7.3-29.9-7.6c-9.4-14.9-11-35.4-3.9-46.2
				C136.5,206.8,149.9,210.1,159.2,225z"/>
			<path class="st5" d="M190.5,225c-9.3-14.8-22.7-18.2-29.9-7.6c-1.1,1.7-2,3.5-2.7,5.7l1.3,1.9c7.9,12.4,10.3,29.1,6.5,40.5
				c9.2,13.1,21.7,15.8,28.6,5.6C201.1,260.9,199.8,239.8,190.5,225z"/>
			<path class="st5" d="M221.7,225c-9.3-14.8-22.7-18.2-29.9-7.6c-1.1,1.7-2,3.5-2.7,5.7l1.3,1.9c7.9,12.4,10.3,29.1,6.5,40.5
				c9.2,13.1,21.6,15.8,28.6,5.6C232.6,260.9,231,239.8,221.7,225z"/>
			<path class="st5" d="M253,225c-9.3-14.8-22.7-18.2-29.9-7.6c-1.1,1.7-2,3.5-2.7,5.7l1.3,1.9c7.9,12.4,10.3,29.1,6.5,40.5
				c9.2,13.1,21.6,15.8,28.6,5.6C263.8,260.9,262.3,239.8,253,225z"/>
			<path class="st5" d="M284.2,225c-9.3-14.8-22.7-18.2-29.9-7.6c-1.1,1.7-2,3.5-2.7,5.7l1.3,1.9c7.9,12.4,10.3,29.1,6.5,40.5
				c9.2,13.1,21.6,15.8,28.6,5.6C295,260.9,293.6,239.8,284.2,225z"/>
			<path class="st5" d="M315.5,225c-9.3-14.8-22.7-18.2-29.9-7.6c-1.1,1.7-2,3.5-2.7,5.7l1.3,1.9c7.9,12.4,10.3,29.1,6.5,40.5
				c9.2,13.1,21.6,15.8,28.6,5.6C326.3,260.9,324.8,239.8,315.5,225z"/>
			<path class="st5" d="M346.8,225c-9.3-14.8-22.7-18.2-29.9-7.6c-1.1,1.7-2,3.5-2.7,5.7l1.3,1.9c7.9,12.4,10.3,29.1,6.5,40.5
				c9.2,13.1,21.6,15.8,28.6,5.6C357.6,260.9,356.1,239.8,346.8,225z"/>
			<path class="st5" d="M378.1,225c-9.3-14.8-22.7-18.2-29.9-7.6c-1.1,1.7-2,3.5-2.7,5.7l1.3,1.9c7.9,12.4,10.3,29.1,6.5,40.5
				c9.2,13.1,21.7,15.8,28.6,5.6C388.7,260.9,387.3,239.8,378.1,225z"/>
			<path class="st6" d="M378.1,225c-9.3-14.8-22.7-18.2-29.9-7.6c-1.1,1.7-2,3.5-2.7,5.7l1.3,1.9c-9.3-14.8-22.7-18.2-29.9-7.6
				c-1.1,1.7-2,3.5-2.7,5.7l1.3,1.9c-9.3-14.8-22.7-18.2-29.9-7.6c-1.1,1.7-2,3.5-2.7,5.7l1.3,1.9c-9.3-14.8-22.7-18.2-29.9-7.6
				c-1.1,1.7-2,3.5-2.7,5.7l1.3,1.9c-9.3-14.8-22.7-18.2-29.9-7.6c-1.1,1.7-2,3.5-2.7,5.7c-9.2-13.1-21.7-15.8-28.6-5.7
				c-1.1,1.7-2,3.5-2.7,5.7l1.3,1.9c-9.3-14.8-22.7-18.2-29.9-7.6c-1.1,1.7-2,3.5-2.7,5.7l1.3,1.9c-9.3-14.8-22.7-18.2-29.9-7.6
				c-3.8,6.3-5.3,14.9-4.1,23.3c0.5-4.5,2-8.6,4.1-11.8c6.9-10.3,19.6-7.4,28.8,6l0,0l-0.2-0.4c0.7-2.1,1.6-4,2.7-5.7
				c6.9-10.2,19.5-7.6,28.7,5.9l0,0H189c0.7-2.1,1.6-4,2.7-5.7c6.9-10.2,19.4-7.6,28.6,5.7c0.7-2.1,1.6-4,2.7-5.7
				c6.8-10,19.2-7.6,28.3,5.3c0.2-0.4,0.5-0.7,0.8-0.9c0.6-1.5,1.3-3,2.2-4.1c6.9-10.2,19.4-7.6,28.6,5.7l0,0l0,0
				c0.7-2.1,1.6-4,2.7-5.7c6.9-10.3,19.6-7.4,28.8,6l0,0c-0.1-0.1-0.2-0.2-0.2-0.4c0.7-2.1,1.6-4,2.7-5.7
				c6.9-10.2,19.4-7.6,28.6,5.7l0,0l0,0c0.7-2.1,1.6-4,2.7-5.7c7.2-10.6,20.6-7.3,29.9,7.6c3.9,6.1,6.6,13.8,7.8,22.2
				C387,246.5,384.1,233.8,378.1,225z"/>
			<path class="st7" d="M353.3,265.5L353.3,265.5c-0.7,2.1-1.6,4-2.7,5.6c-6.9,10.2-19.4,7.6-28.6-5.6l0,0c-0.7,2.1-1.6,4-2.7,5.6
				c-6.9,10.2-19.4,7.6-28.6-5.6l0,0c-0.7,2.1-1.6,4-2.7,5.6c-6.9,10.2-19.4,7.6-28.6-5.6l0,0c-0.7,2.1-1.6,4-2.7,5.6
				c-6.9,10.2-19.4,7.6-28.6-5.6l0,0c-0.7,2.1-1.6,4-2.7,5.6c-6.9,10.2-19.4,7.6-28.6-5.6l0,0c-0.7,2.1-1.6,4-2.7,5.6
				c-6.9,10.2-19.4,7.6-28.6-5.6l0,0c-0.7,2.1-1.6,4-2.7,5.6c-6.4,9.5-17.6,7.9-26.5-3c1.4,22.8,4.7,54,12.3,66.4
				c8.1,13.1,196.2,9.7,211.9,4.8c9.9-3.1,12.6-37.3,13.3-62.3C366.2,278.2,358.7,273.9,353.3,265.5z"/>
			<path class="st6" d="M366.9,328.6c-15.7,4.8-203.8,8.3-211.9-4.8c-5.8-9.3-9-29.7-10.8-48.9c-2.7-1.7-5.3-3.9-7.6-6.6
				c1.4,22.8,4.7,54,12.3,66.4c8.1,13.1,196.2,9.7,211.9,4.8c3.2-0.9,5.7-5.3,7.6-11.6C367.9,328.3,367.4,328.5,366.9,328.6z"/>
			<path class="st5" d="M256.7,89c-1.4,4.8,0,10.3-2.9,15.4c-3.6,6.6-10.6,1.8-14.7,10.9c-7.7,17,1.8,21.7,11.3,20.8
				c8.5-0.8,15.4-6.1,14.6-20.8c-0.5-8.9-2.3-20.8-8.1-26.2"/>
			<path class="st8" d="M264.9,120.2c-0.9,10.9-7.1,15.1-14.5,15.8c-8.4,0.8-16.7-2.7-13.5-15c-51.3,7-92.3,44.1-102.3,91.6
				c7.4-3.8,17.2,0.7,24.6,12.4l-1.3-1.9c0.7-2.1,1.6-4,2.7-5.7c7.2-10.6,20.6-7.3,29.9,7.6l-1.3-1.9c0.7-2.1,1.6-4,2.7-5.7
				c7.2-10.6,20.5-7.3,29.9,7.6l-1.3-1.9c0.7-2.1,1.6-4,2.7-5.7c7.2-10.6,20.5-7.3,29.9,7.6l-1.2-2c0.7-2.1,1.6-4,2.7-5.7
				c7.2-10.6,20.5-7.3,29.9,7.6l-1.3-1.9c0.7-2.1,1.6-4,2.7-5.7c7.2-10.6,20.5-7.3,29.9,7.6l-1.3-1.9c0.7-2.1,1.6-4,2.7-5.7
				c7.2-10.6,20.5-7.3,29.9,7.6l-1.3-1.9c0.7-2.1,1.6-4,2.7-5.7c6.8-10,19.1-7.6,28.3,5.3C370.3,168,323.5,124.7,264.9,120.2z"/>
			<path class="st9" d="M332.8,185.1c0,0,19.7,17.8,17.2,32.1c-2.5,14.3-31.8-24.7-28.7-35C323.5,175.5,332.8,185.1,332.8,185.1z"/>
			<path class="st9" d="M311.4,163.7c-2.2,1.7-3,5.8-1.9,9.1s3.8,4.6,5.9,3c2.1-1.7,3-5.7,1.9-9
				C316.3,163.5,313.6,162.1,311.4,163.7z"/>
			<path class="st6" d="M202.4,169.4c-8.7,3.9-16.8,1.1-18.3-6.4c-1.4-7.4,4.4-16.7,13.1-20.8c8.7-4.1,16.8-1.1,18.3,6.4
				C216.9,156,211.1,165.5,202.4,169.4z"/>
			<path class="st9" d="M357.8,172.8c-20.1-29.4-54-49.6-92.9-52.7c-0.9,10.9-7.1,15.1-14.5,15.8c-8.4,0.8-16.7-2.7-13.5-15
				c-30.5,4.1-57.3,18.9-76.2,40.2c6.2,5.4,12.7,7.1,23.8-3.3c9.5-9,30.8-19.8,42.2-17.1c14.8,3.5,7.2,16.2,2.9,28.6
				c-2.1,6.3-5.4,19.5,1.4,21c6.2,1.4,9.9-12.2,12.9-18.2c3.5-7,9.4-16.7,15.1-19.1c7.9-3.8,10,5.7,13,15
				c4.6,14.1,14.3,35.1,24.3,27.9c8.1-5.7,0.8-22.6,1.2-32.5c0.6-16.1,16-11,21.1-6.7C336.7,172.1,349.2,190.3,357.8,172.8z"/>
			<path class="st6" d="M258.4,90.9c-0.5-0.7-1.1-1.4-1.7-2c-1.4,4.8,0,10.3-2.9,15.4c-3.6,6.6-10.6,1.8-14.7,10.9
				c-3,6.6-3.4,11.2-2.2,14.5c1.4-6.6,5.1-11.1,14.8-14.9c10.8-4.1,7-22.6,7-22.6L258.4,90.9z"/>
			<path class="st10" d="M126.4,241.6c-0.2-0.9,7.9,22.3,21.1,19.7c13.3-2.6,17.8-23.5,17.8-23.5s9.1,33.8-11.4,38.5
				C133.5,281,129.3,253,126.4,241.6z"/>
			<path class="st10" d="M196.8,237.8c0,0-4.4,21-17.9,23.5c-3.7,0.7-7.4-0.5-10.6-3.4c-0.2,3.2-1.2,6.3-2.7,8.5
				c4,7.1,10,12,19.6,9.8C205.9,271.7,196.8,237.8,196.8,237.8z"/>
			<path class="st10" d="M228.3,237.8c0,0-4.6,21-17.8,23.5c-3.9,0.6-7.9-0.8-11.2-4.1c-0.2,2.6-0.9,5-1.9,7c0,0.4-0.2,0.7-0.3,0.9
				l-0.2,0.4c4,7.6,10,13,20,10.6C237.4,271.7,228.3,237.8,228.3,237.8z"/>
			<path class="st10" d="M259.9,237.8c0,0-4.6,21-17.8,23.5c-4.2,0.7-8.4-0.9-11.9-4.6c-0.1,3.3-0.5,6.6-1.4,9.7
				c4,7.1,10,12.4,19.7,10C268.8,271.7,259.9,237.8,259.9,237.8z"/>
			<path class="st10" d="M291.2,237.8c0,0-4.6,21-17.8,23.5c-3.9,0.7-7.8-0.7-11.1-3.9c0,0.6-0.1,1.3-0.2,1.8
				c-0.4,2.4-1.2,4.5-2.2,6.4c4,7.6,10,13,20,10.6C300.4,271.7,291.2,237.8,291.2,237.8z"/>
			<path class="st10" d="M322.7,237.8c0,0-4.6,21-17.8,23.5c-4,0.8-8.1-0.7-11.5-4.1v0.7c-0.1,3.1-0.7,6.1-1.6,8.9
				c4,7.1,10,11.9,19.5,9.8C331.8,271.7,322.7,237.8,322.7,237.8z"/>
			<path class="st10" d="M354.1,237.8c0,0-4.6,21-17.8,23.5c-4.6,0.7-9.3-1.3-12.9-5.8c0.3,3.2-0.1,6.5-1,9.5
				c4,7.8,10.1,13.7,20.4,11.3C363.3,271.7,354.1,237.8,354.1,237.8z"/>
			<path class="st10" d="M385.6,237.8c0,0-4.6,21-17.8,23.5c-5,0.8-10.1-1.8-13.9-6.9c-0.1,1.9-0.3,3.8-0.5,5.7
				c-0.1,1.1-0.3,2-0.5,3c3.9,8.7,10.2,15.7,21.2,13.1C394.7,271.7,385.6,237.8,385.6,237.8z"/>
			<path class="st6" d="M132.4,216.2c0,0-3.7,36.3,24.9,61.1c0,0-15.7,9.8-25.6-15.9C121.7,235.5,123.7,225.4,132.4,216.2z"/>
			<path class="st6" d="M243.2,135.5c-5.1-1.5-8.6-5.9-6.3-14.4c-51.3,7-92.3,44.1-102.3,91.6c2.2-1.1,4.5-1.4,6.7-1.2
				c9-22.4,25.2-45,53.7-59.3C210.7,144.2,226.9,138.7,243.2,135.5z"/>
			<path class="st6" d="M325.5,141c-19.2-12.4-39.7-19.5-60.6-20.8c-0.4,5.9-2.9,11-6.5,13.1c40.5-3.8,65.3,10.3,65.3,10.3
				L325.5,141z"/>
			<path class="st4" d="M159.2,225c9.3,14.8,11,35.4,3.8,46.2c-7.2,10.6-20.5,7.3-29.9-7.6c-9.4-14.9-11-35.4-3.9-46.2
				C136.5,206.8,149.9,210.1,159.2,225z"/>
			<path class="st4" d="M190.5,225c-9.3-14.8-22.7-18.2-29.9-7.6c-1.1,1.7-2,3.5-2.7,5.7l1.3,1.9c7.9,12.4,10.3,29.1,6.5,40.5
				c9.2,13.1,21.7,15.8,28.6,5.6C201.1,260.9,199.8,239.8,190.5,225z"/>
			<path class="st4" d="M221.7,225c-9.3-14.8-22.7-18.2-29.9-7.6c-1.1,1.7-2,3.5-2.7,5.7l1.3,1.9c7.9,12.4,10.3,29.1,6.5,40.5
				c9.2,13.1,21.6,15.8,28.6,5.6C232.6,260.9,231,239.8,221.7,225z"/>
			<path class="st4" d="M253,225c-9.3-14.8-22.7-18.2-29.9-7.6c-1.1,1.7-2,3.5-2.7,5.7l1.3,1.9c7.9,12.4,10.3,29.1,6.5,40.5
				c9.2,13.1,21.6,15.8,28.6,5.6C263.8,260.9,262.3,239.8,253,225z"/>
			<path class="st4" d="M284.2,225c-9.3-14.8-22.7-18.2-29.9-7.6c-1.1,1.7-2,3.5-2.7,5.7l1.3,1.9c7.9,12.4,10.3,29.1,6.5,40.5
				c9.2,13.1,21.6,15.8,28.6,5.6C295,260.9,293.6,239.8,284.2,225z"/>
			<path class="st4" d="M315.5,225c-9.3-14.8-22.7-18.2-29.9-7.6c-1.1,1.7-2,3.5-2.7,5.7l1.3,1.9c7.9,12.4,10.3,29.1,6.5,40.5
				c9.2,13.1,21.6,15.8,28.6,5.6C326.3,260.9,324.8,239.8,315.5,225z"/>
			<path class="st4" d="M346.8,225c-9.3-14.8-22.7-18.2-29.9-7.6c-1.1,1.7-2,3.5-2.7,5.7l1.3,1.9c7.9,12.4,10.3,29.1,6.5,40.5
				c9.2,13.1,21.6,15.8,28.6,5.6C357.6,260.9,356.1,239.8,346.8,225z"/>
			<path class="st4" d="M378.1,225c-9.3-14.8-22.7-18.2-29.9-7.6c-1.1,1.7-2,3.5-2.7,5.7l1.3,1.9c7.9,12.4,10.3,29.1,6.5,40.5
				c9.2,13.1,21.7,15.8,28.6,5.6C388.7,260.9,387.3,239.8,378.1,225z"/>
			<path class="st4" d="M353.3,265.5L353.3,265.5c-0.7,2.1-1.6,4-2.7,5.6c-6.9,10.2-19.4,7.6-28.6-5.6l0,0c-0.7,2.1-1.6,4-2.7,5.6
				c-6.9,10.2-19.4,7.6-28.6-5.6l0,0c-0.7,2.1-1.6,4-2.7,5.6c-6.9,10.2-19.4,7.6-28.6-5.6l0,0c-0.7,2.1-1.6,4-2.7,5.6
				c-6.9,10.2-19.4,7.6-28.6-5.6l0,0c-0.7,2.1-1.6,4-2.7,5.6c-6.9,10.2-19.4,7.6-28.6-5.6l0,0c-0.7,2.1-1.6,4-2.7,5.6
				c-6.9,10.2-19.4,7.6-28.6-5.6l0,0c-0.7,2.1-1.6,4-2.7,5.6c-6.4,9.5-17.6,7.9-26.5-3c1.4,22.8,4.7,54,12.3,66.4
				c8.1,13.1,196.2,9.7,211.9,4.8c9.9-3.1,12.6-37.3,13.3-62.3C366.2,278.2,358.7,273.9,353.3,265.5z"/>
			<path class="st4" d="M256.7,89c-1.4,4.8,0,10.3-2.9,15.4c-3.6,6.6-10.6,1.8-14.7,10.9c-7.7,17,1.8,21.7,11.3,20.8
				c8.5-0.8,15.4-6.1,14.6-20.8c-0.5-8.9-2.3-20.8-8.1-26.2"/>
			<path class="st4" d="M264.9,120.2c-0.9,10.9-7.1,15.1-14.5,15.8c-8.4,0.8-16.7-2.7-13.5-15c-51.3,7-92.3,44.1-102.3,91.6
				c7.4-3.8,17.2,0.7,24.6,12.4l-1.3-1.9c0.7-2.1,1.6-4,2.7-5.7c7.2-10.6,20.6-7.3,29.9,7.6l-1.3-1.9c0.7-2.1,1.6-4,2.7-5.7
				c7.2-10.6,20.5-7.3,29.9,7.6l-1.3-1.9c0.7-2.1,1.6-4,2.7-5.7c7.2-10.6,20.5-7.3,29.9,7.6l-1.2-2c0.7-2.1,1.6-4,2.7-5.7
				c7.2-10.6,20.5-7.3,29.9,7.6l-1.3-1.9c0.7-2.1,1.6-4,2.7-5.7c7.2-10.6,20.5-7.3,29.9,7.6l-1.3-1.9c0.7-2.1,1.6-4,2.7-5.7
				c7.2-10.6,20.5-7.3,29.9,7.6l-1.3-1.9c0.7-2.1,1.6-4,2.7-5.7c6.8-10,19.1-7.6,28.3,5.3C370.3,168,323.5,124.7,264.9,120.2z"/>
			<path class="st4" d="M156.1,242.4c2.7,8.6,8.6,24.9,1.1,31.3"/>
			<path class="st4" d="M138.4,211.7c-12.9-3-1.3,33.2,1.1,37.7"/>
			<path class="st4" d="M189.2,242.4c2.7,8.6,8.6,24.9,1.1,31.3"/>
			<path class="st4" d="M220.5,242.4c2.7,8.6,8.6,24.9,1.1,31.3"/>
			<path class="st4" d="M251.8,242.4c2.7,8.6,8.6,24.9,1.1,31.3"/>
			<path class="st4" d="M282.9,242.4c2.7,8.6,8.6,24.9,1.1,31.3"/>
			<path class="st4" d="M314.2,242.4c2.7,8.6,8.6,24.9,1.1,31.3"/>
			<path class="st4" d="M345.4,242.4c2.7,8.6,8.6,24.9,1.1,31.3"/>
			<path class="st4" d="M321.7,157.3c0,0,26.7,20.2,38.4,52.1"/>
			<path class="st4" d="M327.8,179.9c0,0,9.8,5.8,22.6,31.8"/>
			<path class="st4" d="M158.1,188.9c0,0,19.3-33.9,61.3-47.5"/>
			<path class="st4" d="M365.8,277.1c0,0-1.9,37-7.9,44.5c-6,7.6-16.9,5.8-53.1,6.4"/>
			<path class="st4" d="M332.8,315.3c-3.2,0-6.3-0.2-9.5-0.6"/>
			<path class="st4" d="M359,272.5c-0.4,12.8-0.4,43.9-14.3,42.2"/>
			<path class="st11" d="M83.3,299.2c1.3,0.4,2.6,0.7,3.9,0.8c-0.4-2.2-0.8-4.6-1.1-7c-0.5-0.4-0.8-1.2-0.9-2.1
				c-1.9-3.7-4.1-6.9-6.6-9.5c-2.1-0.8-4.2-1.8-6.2-3.1c-1.6,0-3.1,0.6-4.5,1.7c-2.7,2.2-2.3,4.1-2.2,4.6c0.6,3.7,5.2,8.3,11,11.6
				C79,296.6,81.3,297.6,83.3,299.2z"/>
			<path class="st9" d="M67.7,176.9c2.2,0.9,4.2,2.6,5.9,5c1.2,0.7,2.3,1.4,3.5,2v-7.4c-0.3-0.6-0.5-1.4-0.4-2.2
				c-2.4-7.9-7.4-19.5-15-16.1c-2.9,1.4-2.9,3.3-2.9,4.1C58.9,166,62.6,172.1,67.7,176.9z"/>
			<path class="st9" d="M80.2,276.2c1.2,0.5,2.4,0.8,3.7,1.1c-0.3-2.4-0.6-4.7-0.9-7.1c-0.5-0.4-0.9-1.3-0.8-2.2
				c-1.7-3.8-3.9-7.1-6.3-9.9c-2.1-0.9-4.1-2-6-3.4c-1.6-0.1-3.1,0.4-4.5,1.4c-2.7,2.1-2.5,3.9-2.4,4.5c0.5,3.7,4.8,8.5,10.4,12.2
				C75.7,273,78.1,274.2,80.2,276.2z"/>
			<path class="st11" d="M74.1,205.6c1.2,0.7,2.4,1.3,3.6,1.8c0-2.5-0.1-4.8-0.2-7.3c-0.4-0.6-0.6-1.4-0.5-2.2
				c-1.4-4.1-3.2-7.8-5.4-11c-1.9-1.3-3.8-2.8-5.6-4.5c-1.6-0.5-3.2-0.2-4.6,0.6c-2.9,1.5-2.7,3.5-2.7,4.1c0.2,3.7,4.1,9.5,9.3,14.2
				C70.3,202,72.3,203.5,74.1,205.6z"/>
			<path class="st9" d="M75.3,229.3c1.3,0.6,2.5,1.2,3.8,1.5c-0.2-2.4-0.4-4.8-0.5-7.2c-0.4-0.6-0.7-1.4-0.6-2.2
				c-1.5-4-3.4-7.7-5.7-10.6c-2-1.2-3.9-2.6-5.8-4.1c-1.6-0.4-3.2,0-4.6,0.8c-2.7,1.8-2.7,3.7-2.7,4.1c0.2,3.7,4.3,9.2,9.7,13.6
				C71.3,225.7,73.4,227.1,75.3,229.3z"/>
			<path class="st9" d="M87.7,322.1c1.2,0.2,2.4,0.5,3.6,0.6c-0.4-2.2-0.8-4.6-1.3-6.9c-0.5-0.4-0.9-1.2-0.9-2.1
				c-2-3.7-4.4-6.7-7-9.2c-1.9-0.7-3.9-1.5-5.8-2.5c-1.6,0-3.3,0.7-4.7,2c-2.5,2.4-2.2,4.1-2.1,4.6c0.7,3.5,5.4,7.9,11.2,10.9
				C83.1,319.6,85.5,320.5,87.7,322.1z"/>
			<path class="st11" d="M112.4,315c-0.3-1.5-2.1-1.8-3.5-1.8c-1.5,0-3,0.5-4.3,1.5c-1.3,2.1-2.7,4.1-4.2,6.1
				c-1.5,3.8-2.5,8-2.9,12.4c0.7,3.1,1.3,6.3,2.1,9.3C107.1,333.1,113.5,319.6,112.4,315z"/>
			<path class="st11" d="M93.6,336.3c-2.1-3.5-4.6-6.5-7.3-8.7c-2-0.6-4-1.3-6-2.1c-1.6,0.1-3.2,0.9-4.6,2.2
				c-2.4,2.5-2.1,4.1-1.9,4.7C75,338,86.1,344.8,96,344.8c-0.5-2.2-1-4.5-1.5-6.9C94.1,337.7,93.7,337.1,93.6,336.3z"/>
			<path class="st11" d="M81.2,196.9c0,3.2,0,6.4,0.2,9.7c1.1-0.8,2.1-1.7,3.1-2.5c1.7-2.6,3.7-4.5,5.9-5.7c5-5.4,8.6-11,8.4-14.3
				c0-1.5-1.7-2.4-2.7-2.7c-1.5-0.7-3.2-0.8-4.7-0.2c-1.7,1.5-3.4,3.1-5.2,4.4C84.2,189,82.4,192.8,81.2,196.9z"/>
			<path class="st11" d="M97.5,271c-1.5,2-3.1,4.1-4.6,5.7c-0.3,0.7-0.6,1.4-0.9,2.1c-1.2,3.1-2.1,6.4-2.7,9.9
				c0.5,3.2,1,6.3,1.5,9.5c0.9-1.1,1.9-2.1,2.7-3.2c1.3-2.8,3-5.1,5-6.7c4.4-6.6,7.3-13.1,6.7-16.2c-0.2-1.5-2-2-3.1-2.1
				C100.6,269.7,99,270.1,97.5,271z"/>
			<path class="st9" d="M80.9,183.3c1.1-0.7,2.1-1.4,3.2-2.2c1.7-2.5,3.8-4.3,6.1-5.3c5.2-5.1,8.9-10.6,8.9-13.8
				c0-1.5-1.6-2.5-2.7-3c-8.4-4.1-13.9,9.8-15.5,14.6C80.9,176.9,80.9,180.1,80.9,183.3z"/>
			<path class="st9" d="M96.3,299c-1.6,3.8-2.7,8-3.3,12.4c0.6,3.2,1.2,6.4,1.8,9.5c0.9-1.1,1.9-2.4,2.7-3.5
				c1.2-2.7,2.8-5.1,4.6-6.9c4.2-6.9,6.9-13.6,6.3-16.7c-0.3-1.5-2.1-1.9-3.1-1.9c-1.6-0.2-3.2,0.2-4.7,1.3
				C99.3,295.1,97.9,297.1,96.3,299z"/>
			<path class="st9" d="M86.2,266.1c0.4,3.2,0.8,6.3,1.3,9.5c0.9-0.9,1.9-1.9,2.7-3c1.4-2.8,3.3-5.1,5.4-6.6
				c4.5-6.3,7.5-12.4,7.1-15.6c-0.2-1.5-1.9-2.1-3-2.2c-1.6-0.4-3.2-0.1-4.8,0.7c-1.5,1.9-3.1,3.7-4.7,5.3
				C88.3,257.7,87,261.8,86.2,266.1z"/>
			<path class="st11" d="M83.8,243.2c0.3,3.2,0.6,6.4,0.9,9.6c1-0.9,2-1.8,2.9-2.8c1.5-2.6,3.3-4.7,5.4-6c4.8-6,8.1-12.2,7.7-15.4
				c-0.2-1.5-1.9-2.2-2.9-2.5c-1.6-0.5-3.2-0.4-4.8,0.5c-1.6,1.8-3.2,3.5-4.9,5.1C86.3,234.9,84.8,238.8,83.8,243.2z"/>
			<path class="st9" d="M82.2,220.1c0.2,3.2,0.4,6.4,0.6,9.7c1-0.8,2-1.7,3-2.6c1.6-2.6,3.5-4.7,5.7-5.9c4.9-5.7,8.3-11.6,8.1-14.8
				c0-1.5-1.8-2.2-2.7-2.6c-1.6-0.6-3.2-0.6-4.8,0c-1.6,1.7-3.3,3.3-5,4.7C85,211.9,83.3,215.8,82.2,220.1z"/>
			<path class="st11" d="M77.3,252.8c1.3,0.6,2.6,1.1,3.9,1.4c-0.2-2.4-0.5-4.8-0.8-7.2c-0.5-0.5-0.7-1.3-0.7-2.1
				c-1.7-4-3.7-7.6-6.1-10.5c-2-1.1-4-2.4-5.9-3.8c-1.6-0.2-3.2,0.1-4.6,1.2c-2.7,1.9-2.7,3.8-2.5,4.1c0.4,3.7,4.6,9,10.2,12.9
				C73.1,249.4,75.3,250.7,77.3,252.8z"/>
			<path class="st6" d="M79.5,172.8c0,0,8.9-12.4,12-9.2s-1.8,15.2-1.8,15.2s4.3,1.9,4.3,7.3c0,5.4-5.8,15.9-5.8,15.9s6,2.5,5.8,7.9
				S86.1,229,86.1,229s8.7-3.5,9.3,1.3C96,235,90,251.1,90,251.1s6.4-1.3,7,2.5c0.6,3.8-6.3,18-6.3,18s5.6-2.8,8.1,2.8
				S93.4,297,93.4,297s6.9-5,9.6-0.8c2.7,4.1-5.4,22.6-5.4,22.6s8.1-5.7,9.7-1.9c1.6,3.8-8.1,26-8.1,26s15.2-18.6,14.2-26.9
				s-7.4-6.4-7.4-6.4s6.4-11.7,3.7-16.7c-2.2-3.1-5.1-4.7-8.1-4.7c0,0,7-11.8,4.9-17.5s-7.6-5.7-7.6-5.7s6.2-11.8,5-16.7
				s-7.6-5.8-7.6-5.8s7.5-11.5,5.8-15.9c-1.6-4.5-8.9-4.7-8.9-4.7s9.7-12.4,7.9-17.1s-7.5-6.4-7.5-6.4l7-15.1
				c-1.7-3.3-3.9-6-6.4-7.9c0,0,7.5-7.9,6.6-15.6c-0.8-7.7-16-6.4-21.1,12"/>
			<path class="st6" d="M71.3,160.2c0,0-5-2.6-6.8,3.3c-1.9,6,7.3,18.4,7.3,18.4s-8.6-0.7-8.9,5.7s8.2,17.8,8.2,17.8
				s-7.5,2.8-7.6,7.2c-0.2,4.4,12.9,17.8,12.9,17.8s-12.1,2.1-12.3,7.4c-0.2,5.2,14,18.2,14,18.2s-8.5-2.6-10.1,4.1
				c-1.5,6.7,13.2,18.4,13.2,18.4s-10.1,0.7-10.8,5.7c-0.7,5.1,14.3,17.1,14.3,17.1s-8.2,0.7-9.2,6.7c-0.9,6,12.7,15.5,12.7,15.5
				s-9.9,3.8-10.3,7.8c-0.3,4,12.4,14.1,12.4,14.1S71.7,339.7,72,333c0.3-6.7,5.6-12.4,5.6-12.4s-10.7-6.4-10.1-13.5
				c0.5-7.1,6.1-9.3,6.1-9.3s-10.8-9.3-9.9-14.5c0.9-5.2,6.5-9.6,6.5-9.6s-9.3-8.3-9.5-14.8c-0.2-6.5,6.8-9.6,6.8-9.6
				s-9.4-3.8-8.1-15.9s6.9-7.4,6.9-7.4s-9-10.4-7.7-18.1c0.5-4.3,3.1-7.1,5.9-6.5c0,0-7.5-9.3-7.1-15.2s7-8.3,7-8.3
				s-7.9-7.4-7.5-17.5C57.4,150.5,67.4,155.7,71.3,160.2z"/>
			<path class="st12" d="M116,313.2c-0.6-2.6-2.2-5.7-6.7-5.7h-0.7c2.7-5.7,4.3-11.3,3.5-15.5c-0.5-2.6-2.1-5.7-6.5-6
				c-0.2,0-0.5,0-0.7,0c2.9-5.6,4.7-11.1,4-15.4c-0.4-2.6-1.9-5.9-6.3-6.4h-0.7c3.1-5.3,5-10.8,4.4-15.1c-0.3-2.4-1.7-5.9-6.1-6.6
				c-0.2,0-0.4,0-0.6,0c3.2-5.2,5.4-10.5,4.9-14.8c-0.3-2.6-1.5-6-5.9-7.2H98c3.4-5,5.7-10.2,5.4-14.5c-0.2-2.6-1.3-6.1-5.7-7.6H97
				c3.5-4.8,6-9.9,5.8-14.3c0-2.6-1.2-6.1-5.4-7.9h-0.6c3.7-4.6,6.3-9.6,6.2-13.9c0-2.6-1-6.3-5.2-8.3c-5.5-2.6-11.4,0.1-15.1,6.9
				c3.8-10.6,7.9-21,12.3-31.2c0.6-1.4,0.4-3.3-0.5-4.3c-0.9-0.9-2.1-0.6-2.8,0.7c-3.6,8.3-7,17.1-10.3,26c0.7-22,2.3-43.7,5-65.3
				c0.2-1.5-0.5-3.1-1.5-3.3c-1-0.4-2,0.7-2.2,2.2c-2.8,22.9-4.5,46.2-5.1,69.5c-3.5-11.1-6.7-22.6-9.6-34c-0.4-1.5-1.4-2.2-2.4-1.7
				c-1,0.6-1.4,2.2-1.1,3.8c3,12,6.4,24,10,35.6c-3.4-5.9-8.8-8.3-13.8-6.1c-5,2.4-5.6,7.1-5.6,9.7c0,4.7,2.6,9.9,6.2,14.6
				c-0.4,0.1-0.7,0.2-1.1,0.5c-4.9,2.6-5.4,7.3-5.3,9.9c0.2,4.7,2.9,9.8,6.6,14.2l-1,0.6c-4.8,3-5.2,7.7-5,10.2
				c0.4,4.6,3.2,9.6,7.2,13.7l-1,0.6c-4.7,3.2-4.9,7.9-4.7,10.5c0.5,4.6,3.4,9.3,7.5,13.3l-1,0.6c-4.5,3.5-4.7,8.3-4.4,10.8
				c0.6,4.6,3.7,9.1,7.9,12.9c-0.3,0-0.6,0.4-0.9,0.6c-4.4,3.8-4.5,8.3-4.1,10.9c0.7,4.7,4,9,8.4,12.4l-0.9,0.7
				c-4.3,4.1-4.2,8.7-3.7,11.1c0.8,4.6,4.3,8.7,8.7,11.8l-0.9,0.8c-4.2,4.1-3.9,9-3.4,11.3c2.1,10,16.7,16.7,26.2,16.7h0.9
				c4.1,17.1,8.8,33.8,14.1,50.1c0.5,1.4,1.6,2,2.5,1.3s1.3-2.5,0.8-3.9c-5.3-16.2-9.9-32.8-14-49.9
				C108.4,339.3,118,322.4,116,313.2z M108.5,293.7c0.6,3.1-2.1,9.8-6.3,16.7c-1.9,1.8-3.4,4.1-4.6,7c-0.9,1.2-1.9,2.4-2.7,3.5
				c-0.6-3.2-1.2-6.3-1.8-9.5c0.6-4.5,1.7-8.6,3.3-12.4c1.5-1.8,2.9-3.8,4.3-5.9c1.5-1.1,3.1-1.5,4.7-1.3
				C106.4,291.9,108.2,292.1,108.5,293.7z M105.2,272.2c0.5,3.1-2.4,9.6-6.7,16.2c-1.9,1.7-3.6,3.9-4.9,6.6
				c-0.9,1.1-1.8,2.2-2.7,3.2c-0.5-3.2-1.1-6.4-1.5-9.5c0.6-3.4,1.5-6.9,2.7-9.9c0.3-0.7,0.6-1.4,0.9-2.1c1.6-1.8,3.1-3.7,4.6-5.7
				c1.5-0.9,3.1-1.2,4.7-0.9C103.3,270.3,105,270.6,105.2,272.2z M99.7,248.2c1,0.2,2.7,0.8,3,2.2c0.4,3.1-2.7,9.3-7.1,15.6
				c-2.1,1.5-4,3.8-5.4,6.6c-0.9,1.1-1.8,2-2.7,3c-0.4-3.2-0.9-6.3-1.3-9.5c0.8-4.4,2.2-8.4,4-11.9c1.6-1.7,3.2-3.4,4.7-5.3
				C96.4,248.1,98.1,247.8,99.7,248.2z M97.9,226c1,0.2,2.7,0.9,2.9,2.5c0.3,3.2-2.9,9.3-7.7,15.4c-2.1,1.4-3.9,3.4-5.4,6
				c-1,0.9-1.9,1.9-2.9,2.8c-0.3-3.2-0.6-6.4-0.9-9.6c1-4.3,2.5-8.3,4.4-11.7c1.6-1.5,3.3-3.2,4.9-5.1
				C94.6,225.6,96.3,225.5,97.9,226z M96.7,203.8c1,0.4,2.7,1.1,2.7,2.6c0.2,3.2-3.2,9-8.1,14.8c-2.2,1.3-4.1,3.3-5.7,5.9
				c-1,0.9-2,1.8-3,2.6c-0.2-3.2-0.4-6.4-0.6-9.7c1.1-4.3,2.7-8.2,4.8-11.5c1.7-1.4,3.4-3.1,5-4.7C93.4,203.2,95.1,203.2,96.7,203.8
				L96.7,203.8z M96.3,181.4c1,0.4,2.7,1.3,2.7,2.7c0.2,3.2-3.4,8.9-8.4,14.3c-2.2,1.2-4.3,3.1-5.9,5.7c-1,0.8-2.1,1.7-3.1,2.5
				c-0.1-3.2-0.2-6.4-0.2-9.7c1.2-4.3,3-8,5.1-11.2c1.7-1.3,3.5-2.8,5.2-4.4C93.1,180.7,94.7,180.8,96.3,181.4L96.3,181.4z
				 M96.5,159.1c1,0.5,2.7,1.4,2.7,3c0,3.2-3.7,8.6-8.9,13.8c-2.3,0.9-4.4,2.8-6.1,5.3c-1,0.8-2.1,1.5-3.2,2.2c0-3.2,0-6.4,0-9.5
				C82.6,168.9,88.1,154.8,96.5,159.1L96.5,159.1z M58.9,162.2c0-0.6,0-2.6,2.9-4.1c7.7-3.4,12.6,8.3,15,16.1
				c-0.1,0.8,0.1,1.7,0.4,2.2v7.4c-1.2-0.5-2.5-1.1-3.7-1.8c-1.7-2.4-3.8-4-6-5C62.6,172.1,58.9,166,58.9,162.2L58.9,162.2z
				 M58.8,187.1c0-0.6,0-2.5,2.7-4.1c1.5-0.8,3.1-0.9,4.6-0.6c1.8,1.7,3.6,3.2,5.6,4.5c2.2,3.2,4,7,5.4,11c-0.1,0.8,0.1,1.7,0.5,2.2
				c0,2.5,0,4.8,0.2,7.3c-1.2-0.5-2.4-1.1-3.6-1.8c-1.8-2.2-3.9-3.9-6.2-4.6c-5.2-4.6-9.1-10.4-9.3-14.1L58.8,187.1z M59.4,211.8
				c0-0.6-0.2-2.5,2.7-4.1c1.5-0.9,3.1-1.2,4.6-0.8c1.9,1.5,3.8,3,5.8,4.1c2.3,3.1,4.2,6.6,5.7,10.6c-0.1,0.8,0.2,1.7,0.6,2.2
				c0.1,2.4,0.3,4.8,0.5,7.2c-1.3-0.5-2.5-0.9-3.8-1.5c-1.9-2.1-4-3.5-6.3-4.1c-5.5-4.5-9.6-10-9.9-13.7L59.4,211.8z M60.8,236.4
				c0-0.6-0.2-2.4,2.5-4.1c1.4-0.9,3-1.4,4.6-1.2c1.8,1.3,3.8,2.4,5.7,3.3c2.4,3,4.4,6.4,6,10.3c0,0.8,0.2,1.7,0.7,2.1
				c0.2,2.4,0.5,4.8,0.8,7.2c-1.3-0.4-2.6-0.8-3.9-1.4c-1.9-1.9-4.1-3.1-6.3-3.5c-5.4-4-9.8-9.2-10.2-12.9L60.8,236.4z M62.8,260.6
				c0-0.6-0.3-2.4,2.4-4.5c1.4-1.1,3-1.5,4.5-1.4c2,1.3,4,2.5,6,3.4c2.4,2.7,4.6,6,6.3,9.9c-0.1,0.9,0.3,1.8,0.8,2.2
				c0.3,2.4,0.6,4.7,0.9,7.1c-1.2-0.2-2.5-0.6-3.7-1.1c-2.1-2-4.5-3.2-6.9-3.5C67.6,269.1,63.3,264.1,62.8,260.6z M65.7,284.8
				c0-0.6-0.4-2.4,2.2-4.6c1.4-1.1,2.9-1.7,4.5-1.7c2,1.3,4.1,2.2,6.2,3.1c2.5,2.6,4.8,5.8,6.6,9.5c0,0.9,0.3,1.7,0.9,2.1
				c0.4,2.4,0.7,4.6,1.1,7c-1.3-0.1-2.6-0.5-3.9-0.8c-2-1.7-4.3-2.5-6.6-2.6C70.9,293.1,66.3,288.2,65.7,284.8L65.7,284.8z
				 M69.3,308.7c0-0.6-0.4-2.2,2.1-4.6c1.5-1.3,3.2-2,4.9-2c1.9,1.1,3.9,1.9,5.9,2.5c2.7,2.4,5.1,5.6,7,9.2c0,0.9,0.4,1.8,0.9,2.1
				c0.4,2.2,0.8,4.6,1.3,6.9c-1.2,0-2.4-0.2-3.6-0.6c-2.2-1.7-4.7-2.6-7.1-2.6C74.7,316.7,70.1,312.3,69.3,308.7L69.3,308.7z
				 M73.7,332.4c0-0.6-0.5-2.2,1.9-4.7c1.4-1.4,3-2.1,4.6-2.2c2,0.9,4,1.7,6,2.1c2.7,2.2,5.2,5.2,7.3,8.7c0,0.8,0.4,1.7,0.9,2
				c0.5,2.2,0.9,4.6,1.5,6.9C86.1,344.9,75,338.1,73.7,332.4L73.7,332.4z M99.4,342.9c-0.7-3.1-1.4-6.3-2.1-9.3
				c0.5-4.4,1.5-8.6,2.9-12.4c1.4-2,2.7-4.1,4.2-6.1c1.4-1.2,2.9-1.8,4.4-1.8c1.4,0,3.2,0,3.5,1.8
				C113.5,319.6,107.1,333.1,99.4,342.9L99.4,342.9z"/>
			<path class="st11" d="M432.3,299.2c-1.3,0.4-2.6,0.7-3.9,0.8c0.4-2.2,0.7-4.6,1.1-7c0.5-0.5,0.8-1.2,0.9-2.1
				c1.9-3.7,4.1-6.9,6.6-9.5c2.1-0.8,4.2-1.8,6.2-3.1c1.6,0,3.1,0.6,4.5,1.7c2.7,2.2,2.3,4.1,2.2,4.6c-0.6,3.7-5.2,8.3-10.9,11.6
				C436.6,296.6,434.3,297.6,432.3,299.2z"/>
			<path class="st9" d="M448,176.9c-2.2,0.9-4.3,2.6-6,5c-1.2,0.7-2.3,1.4-3.5,2c0-2.5,0-5,0-7.4c0.3-0.6,0.5-1.4,0.4-2.2
				c2.4-7.9,7.4-19.5,15-16.1c2.9,1.4,2.9,3.3,2.9,4.1C456.7,166,453,172.1,448,176.9z"/>
			<path class="st9" d="M435.4,276.2c-1.2,0.5-2.4,0.8-3.7,1.1c0.3-2.4,0.6-4.7,0.9-7.1c0.5-0.5,0.9-1.3,0.8-2.2
				c1.7-3.8,3.9-7.1,6.3-9.9c2.1-0.9,4.1-2,6-3.4c1.6-0.1,3.1,0.4,4.6,1.4c2.7,2.1,2.4,3.9,2.3,4.5c-0.5,3.7-4.8,8.5-10.4,12.2
				C439.9,273,437.5,274.2,435.4,276.2z"/>
			<path class="st11" d="M441.5,205.6c-1.2,0.7-2.4,1.3-3.6,1.8c0-2.5,0.1-4.8,0.2-7.3c0.4-0.6,0.6-1.4,0.5-2.2
				c1.4-4.1,3.2-7.8,5.4-11c1.9-1.3,3.8-2.8,5.6-4.5c1.5-0.5,3.1-0.2,4.6,0.6c2.9,1.5,2.7,3.5,2.7,4.1c-0.2,3.7-4,9.5-9.3,14.2
				C445.4,202,443.3,203.5,441.5,205.6z"/>
			<path class="st9" d="M440.3,229.3c-1.2,0.6-2.5,1.2-3.8,1.5l0.5-7.2c0.4-0.6,0.7-1.4,0.6-2.2c1.5-4,3.4-7.6,5.7-10.6
				c2-1.2,3.9-2.6,5.8-4.1c1.6-0.4,3.2-0.1,4.6,0.8c2.7,1.8,2.7,3.7,2.7,4.1c-0.3,3.7-4.3,9.2-9.7,13.6
				C444.3,225.7,442.2,227.1,440.3,229.3z"/>
			<path class="st9" d="M428,322.1c-1.2,0.2-2.4,0.5-3.6,0.6c0.5-2.2,0.9-4.6,1.3-6.9c0.5-0.4,0.9-1.2,0.9-2.1c2-3.7,4.4-6.7,7-9.2
				c2-0.7,4-1.5,5.9-2.5c1.6,0,3.3,0.7,4.7,2c2.5,2.4,2.2,4.1,2.1,4.6c-0.6,3.5-5.4,7.9-11.1,10.9
				C432.6,319.5,430.2,320.5,428,322.1z"/>
			<path class="st11" d="M403.2,315c0.4-1.5,2.2-1.8,3.5-1.8c1.5,0,3,0.5,4.4,1.5c1.3,2.1,2.7,4.1,4.2,6.1c1.5,3.8,2.5,8,2.9,12.4
				c-0.7,3.1-1.3,6.3-2,9.3C408.5,333.1,402.2,319.6,403.2,315z"/>
			<path class="st11" d="M421.9,336.3c2.1-3.5,4.6-6.5,7.3-8.7c2-0.6,4-1.3,6-2.1c1.6,0.1,3.2,0.9,4.6,2.2c2.4,2.5,2.1,4.1,1.9,4.7
				c-1.2,5.6-12.3,12.4-22.3,12.4c0.5-2.2,1-4.5,1.5-6.9C421.4,337.7,421.8,337,421.9,336.3z"/>
			<path class="st11" d="M434.4,196.9c0,3.2-0.1,6.4-0.3,9.7c-1.1-0.8-2.1-1.7-3.1-2.5c-1.6-2.6-3.7-4.5-5.9-5.7
				c-5-5.4-8.6-11-8.5-14.3c0-1.5,1.7-2.4,2.7-2.7c1.5-0.7,3.2-0.8,4.8-0.2c1.7,1.5,3.4,3.1,5.2,4.4
				C431.5,189,433.2,192.8,434.4,196.9z"/>
			<path class="st11" d="M418.2,271c1.5,2,3.1,4.1,4.6,5.7c0.3,0.7,0.6,1.4,0.9,2.1c1.2,3.1,2.1,6.4,2.7,9.9c-0.5,3.2-1,6.3-1.5,9.5
				c-1-1.1-1.9-2.1-2.7-3.2c-1.3-2.7-3-5.1-4.9-6.6c-4.3-6.6-7.3-13.1-6.7-16.2c0.2-1.5,2-2,3.1-2.1
				C415.1,269.8,416.7,270.1,418.2,271z"/>
			<path class="st9" d="M434.7,183.3c-1.1-0.7-2.1-1.4-3.2-2.2c-1.7-2.5-3.8-4.3-6.1-5.3c-5.2-5.1-8.9-10.6-8.9-13.8
				c0-1.5,1.6-2.5,2.7-3c8.4-4.1,13.9,9.8,15.5,14.6C434.7,176.9,434.7,180.1,434.7,183.3z"/>
			<path class="st9" d="M419.3,299c1.6,3.8,2.7,8,3.3,12.4c-0.6,3.2-1.2,6.4-1.8,9.5c-0.9-1.1-1.9-2.4-2.7-3.5
				c-1.2-2.7-2.8-5.1-4.6-6.9c-4.2-6.9-6.9-13.6-6.3-16.7c0.3-1.5,2.1-1.9,3.1-1.9c1.6-0.2,3.2,0.2,4.7,1.3
				C416.5,295.1,417.8,297.1,419.3,299z"/>
			<path class="st9" d="M429.5,266.1c-0.4,3.2-0.8,6.3-1.2,9.5c-0.9-0.9-1.9-1.9-2.7-3c-1.4-2.8-3.3-5.1-5.4-6.6
				c-4.5-6.3-7.5-12.4-7.1-15.6c0.2-1.5,2-2.1,3-2.2c1.6-0.4,3.2-0.1,4.8,0.7c1.5,1.9,3.1,3.7,4.7,5.3
				C427.3,257.7,428.6,261.8,429.5,266.1z"/>
			<path class="st11" d="M431.8,243.2c-0.3,3.2-0.6,6.4-0.9,9.6c-1-0.9-2-1.8-2.9-2.8c-1.5-2.6-3.3-4.7-5.4-6
				c-4.8-6-8.1-12.2-7.7-15.4c0.2-1.5,1.9-2.2,2.9-2.5c1.6-0.5,3.2-0.4,4.8,0.5c1.6,1.8,3.2,3.5,4.9,5.1
				C429.3,234.9,430.8,238.8,431.8,243.2z"/>
			<path class="st9" d="M433.5,220.1c-0.2,3.2-0.4,6.4-0.6,9.7c-1-0.8-2-1.7-3-2.6c-1.6-2.6-3.5-4.7-5.7-5.9
				c-4.9-5.7-8.3-11.6-8.1-14.8c0.1-1.5,1.8-2.2,2.7-2.6c1.6-0.6,3.2-0.6,4.8,0c1.6,1.8,3.3,3.3,5,4.7
				C430.6,211.9,432.3,215.8,433.5,220.1z"/>
			<path class="st11" d="M438.3,252.8c-1.3,0.6-2.5,1.1-3.8,1.4c0.2-2.4,0.5-4.8,0.8-7.2c0.4-0.5,0.7-1.3,0.7-2.1
				c1.6-4,3.6-7.6,6-10.5c2-1.1,4-2.4,5.9-3.8c1.6-0.2,3.2,0.1,4.6,1.2c2.7,1.9,2.5,3.8,2.5,4.1c-0.4,3.7-4.6,9-10.2,12.9
				C442.4,249.4,440.3,250.8,438.3,252.8z"/>
			<path class="st6" d="M436.1,172.8c0,0-8.9-12.4-12-9.2s1.9,15.2,1.9,15.2s-4.3,1.9-4.3,7.3c0,5.4,5.7,15.9,5.7,15.9
				s-6,2.5-5.8,7.9s7.9,19.1,7.9,19.1s-8.7-3.5-9.3,1.3c-0.6,4.7,5.4,20.8,5.4,20.8s-6.4-1.3-7,2.5c-0.6,3.8,6.2,18,6.2,18
				s-5.6-2.8-8.1,2.8s5.4,22.6,5.4,22.6s-7-5.1-9.5-0.9c-2.5,4.1,5.4,22.6,5.4,22.6s-8.1-5.7-9.7-1.9c-1.6,3.8,8.1,26,8.1,26
				s-15.2-18.7-14.2-26.9s7.7-6.4,7.7-6.4s-6.4-11.7-3.7-16.7c2.2-3.1,5.1-4.7,8.1-4.7c0,0-7-11.8-5-17.5c2.1-5.7,7.6-5.7,7.6-5.7
				s-6.2-11.8-5-16.7s7.6-5.7,7.6-5.7s-7.5-11.5-5.8-15.9c1.6-4.5,8.9-4.7,8.9-4.7s-9.7-12.4-7.9-17.1c1.9-4.7,7.5-6.4,7.5-6.4
				l-7-15.2c1.7-3.3,3.9-6,6.4-7.9c0,0-7.5-7.9-6.6-15.6c0.8-7.7,16-6.4,21.1,12"/>
			<path class="st6" d="M444.3,160.2c0,0,5-2.6,6.8,3.3c1.9,6-7.3,18.4-7.3,18.4s8.5-0.7,8.9,5.7c0.3,6.4-8.1,17.8-8.1,17.8
				s7.5,2.8,7.6,7.2c0.2,4.4-12.9,17.8-12.9,17.8s12.1,2.1,12.3,7.4s-14,18.2-14,18.2s8.5-2.6,10.1,4.1c1.6,6.7-13.2,18.4-13.2,18.4
				s10.1,0.7,10.8,5.7S431,301.4,431,301.4s8.2,0.7,9.2,6.7c0.9,6-12.9,15.5-12.9,15.5s10,3.8,10.3,7.8s-12.4,14.1-12.4,14.1
				s18.6-5.7,18.3-12.4c-0.3-6.7-5.6-12.4-5.6-12.4s10.8-6.5,10.2-13.6c-0.6-7.1-6-9.3-6-9.3s10.8-9.3,9.9-14.5s-6.5-9.6-6.5-9.6
				s9.3-8.3,9.5-14.8c0.2-6.5-6.8-9.6-6.8-9.6s9.5-3.8,8.2-15.9c-1.2-12.2-7-7.4-7-7.4s8.9-10.5,7.8-18.2c-0.5-4.3-3.1-7.1-5.9-6.5
				c0,0,7.5-9.3,7-15.2c-0.5-6-7-8.3-7-8.3s7.9-7.4,7.5-17.5C458.1,150.4,448.2,155.7,444.3,160.2z"/>
			<path class="st12" d="M414.7,348.6c-4,17-8.7,33.7-13.9,49.9c-0.5,1.4-0.1,3.2,0.8,3.9l0,0c0.3,0.2,0.5,0.4,0.8,0.2
				c0.7,0,1.4-0.6,1.7-1.5c5.3-16.3,10-33,14.1-50.1h1c9.6,0,24.1-6.5,26.3-16.7c0.5-2.4,0.7-7-3.4-11.3l-0.9-0.8
				c4.4-3.1,7.9-7.2,8.7-11.8c0.4-2.4,0.5-7.1-3.8-11.1l-0.9-0.7c4.3-3.3,7.6-7.7,8.3-12.4c0.4-2.5,0.4-7.1-4.1-10.9l-0.9-0.6
				c4.2-3.8,7.3-8.3,7.9-12.9c0.3-2.5,0.2-7.2-4.4-10.8l-0.9-0.6c4.1-4.1,7-8.6,7.5-13.3c0.2-2.5,0-7.2-4.7-10.5l-1-0.6
				c3.9-4.1,6.8-9.1,7.1-13.8c0.2-2.5-0.2-7.2-5-10.2l-1-0.6c3.8-4.5,6.4-9.5,6.6-14.2c0-2.5-0.4-7.2-5.4-9.9
				c-0.3-0.2-0.7-0.4-1.1-0.5c3.6-4.7,6.1-9.9,6.2-14.6c0-2.6-0.6-7.2-5.6-9.7c-5-2.2-10.3,0.2-13.8,6.1c3.6-11.6,7-23.5,10-35.6
				c0.4-1.5-0.1-3.2-1.1-3.8s-2,0.2-2.4,1.7c-2.9,11.6-6.1,22.9-9.6,34c-0.6-23.4-2.3-46.7-5.1-69.6c-0.2-1.5-1.2-2.6-2.2-2.2
				c-1,0.4-1.7,1.8-1.5,3.3l0,0c2.6,21.6,4.3,43.4,5,65.3c-3.3-8.9-6.8-17.6-10.4-26c-0.6-1.3-1.8-1.5-2.6-0.6
				c-0.8,0.8-1,2.5-0.5,3.8c4.3,10,8.4,20.6,12.3,31.2c-3.7-6.7-9.6-9.5-15.1-6.9c-4.2,2-5.2,5.6-5.2,8.3c0,4.5,2.5,9.3,6.2,13.9
				h-0.6c-4.3,1.7-5.4,5.2-5.4,7.9c-0.2,4.1,2.2,9.5,5.8,14.3h-0.6c-4.3,1.4-5.4,4.8-5.7,7.6c-0.3,4.4,1.9,9.6,5.4,14.5H417
				c-4.4,1.2-5.6,4.5-5.9,7.2c-0.5,4.1,1.6,9.7,4.9,14.8c-0.2,0-0.5,0-0.7,0c-4.4,0.8-5.8,4.1-6.1,6.7c-0.6,4.1,1.4,9.7,4.4,15.1
				H413c-4.5,0.6-5.9,3.8-6.3,6.4c-0.7,4.1,1.1,9.8,4,15.4c-0.2,0-0.5,0-0.7,0c-4.5,0.2-6,3.4-6.5,6c-0.8,4.1,0.8,9.8,3.6,15.5h-0.7
				c-4.5,0-6.2,3.1-6.7,5.7C397.6,322.4,407.2,339.3,414.7,348.6z M410.3,291.8c1.6-0.2,3.2,0.2,4.7,1.3c1.4,2,2.9,4.1,4.3,5.9
				c1.6,3.8,2.7,8,3.3,12.4c-0.6,3.2-1.2,6.4-1.8,9.5c-0.9-1.1-1.9-2.4-2.7-3.5c-1.2-2.7-2.8-5.1-4.6-6.9
				c-4.2-6.9-6.9-13.6-6.3-16.7C407.4,292.1,409.2,291.9,410.3,291.8z M413.5,270c1.6-0.2,3.2,0.1,4.7,0.9c1.5,2,3.1,4.1,4.6,5.7
				c0.3,0.7,0.6,1.4,0.9,2.1c1.2,3.1,2.1,6.4,2.7,9.9c-0.5,3.2-1,6.3-1.5,9.5c-1-1.1-1.9-2.1-2.7-3.2c-1.3-2.7-3-5.1-4.9-6.6
				c-4.3-6.6-7.3-13.1-6.8-16.2C410.6,270.6,412.4,270.3,413.5,270L413.5,270z M420.7,248.9c1.5,1.9,3.1,3.7,4.7,5.3
				c1.8,3.5,3.2,7.6,4,11.9c-0.4,3.2-0.8,6.3-1.2,9.5c-0.9-0.9-1.9-1.9-2.7-3c-1.4-2.8-3.3-5.1-5.4-6.6c-4.5-6.3-7.5-12.4-7.1-15.6
				c0.2-1.5,2-2.1,3-2.2C417.6,247.8,419.2,248.1,420.7,248.9L420.7,248.9z M422.6,226.4c1.6,1.8,3.2,3.5,4.9,5.1
				c1.9,3.4,3.4,7.4,4.4,11.7c-0.3,3.2-0.6,6.4-0.9,9.6c-1-0.9-2-1.8-2.9-2.8c-1.5-2.6-3.3-4.7-5.4-6c-4.8-6-8.1-12.2-7.7-15.4
				c0.2-1.5,1.9-2.2,2.9-2.5C419.3,225.6,421,225.7,422.6,226.4L422.6,226.4z M423.7,204c1.6,1.8,3.3,3.3,5,4.7
				c2,3.3,3.6,7.2,4.7,11.5c-0.2,3.2-0.4,6.4-0.6,9.7c-1-0.8-2-1.7-3-2.6c-1.6-2.6-3.5-4.7-5.7-5.9c-4.9-5.7-8.3-11.6-8.1-14.8
				c0.1-1.5,1.8-2.2,2.7-2.6C420.4,203.2,422.1,203.3,423.7,204L423.7,204z M424.2,181.3c1.7,1.5,3.4,3.1,5.2,4.4
				c2.1,3.2,3.9,7.1,5.1,11.2c0,3.2-0.1,6.4-0.3,9.7c-1.1-0.8-2.1-1.7-3.1-2.5c-1.6-2.6-3.7-4.5-5.9-5.7c-5-5.4-8.6-11-8.5-14.3
				c0-1.5,1.7-2.4,2.7-2.7C421,180.8,422.6,180.7,424.2,181.3L424.2,181.3z M434.7,173.8c0,3.2,0,6.3,0,9.5
				c-1.1-0.7-2.1-1.4-3.2-2.2c-1.7-2.5-3.8-4.3-6.1-5.3c-5.2-5.1-8.9-10.6-8.9-13.8c0-1.5,1.6-2.5,2.7-3
				C427.5,154.8,433.1,168.9,434.7,173.8L434.7,173.8z M448,176.9c-2.2,0.9-4.3,2.6-6,5c-1.2,0.7-2.3,1.4-3.5,2c0-2.5,0-5,0-7.4
				c0.3-0.6,0.5-1.4,0.4-2.2c2.4-7.9,7.4-19.5,15-16.1c2.9,1.4,2.9,3.3,2.9,4.1C456.7,166,453,172.1,448,176.9L448,176.9z
				 M447.6,201.2c-2.2,0.8-4.3,2.4-6.1,4.5c-1.2,0.7-2.4,1.3-3.6,1.8c0-2.5,0.1-4.8,0.2-7.3c0.4-0.6,0.6-1.4,0.5-2.2
				c1.4-4.1,3.2-7.8,5.4-11c1.9-1.3,3.8-2.8,5.6-4.5c1.5-0.5,3.1-0.2,4.6,0.6c2.9,1.5,2.7,3.5,2.7,4.1
				C456.8,190.6,452.9,196.4,447.6,201.2z M446.6,225.1c-2.3,0.7-4.4,2.1-6.3,4.1c-1.2,0.6-2.5,1.2-3.8,1.5l0.5-7.2
				c0.4-0.6,0.7-1.4,0.6-2.2c1.5-4,3.4-7.6,5.7-10.6c2-1.2,3.9-2.6,5.8-4.1c1.6-0.4,3.2-0.1,4.6,0.8c2.7,1.8,2.7,3.7,2.7,4.1
				C456,215.3,452,220.9,446.6,225.1L446.6,225.1z M444.7,249c-2.3,0.5-4.5,1.8-6.4,3.7c-1.3,0.6-2.5,1.1-3.8,1.4
				c0.2-2.4,0.5-4.8,0.8-7.2c0.4-0.5,0.7-1.3,0.7-2.1c1.6-4,3.6-7.6,6-10.5c2-1.1,4-2.4,5.9-3.8c1.6-0.2,3.2,0.1,4.6,1.2
				c2.7,1.9,2.5,3.8,2.5,4.1C454.5,239.9,450.3,245.1,444.7,249L444.7,249z M442.4,272.6c-2.5,0.4-4.8,1.5-6.9,3.5
				c-1.2,0.5-2.4,0.8-3.7,1.1c0.3-2.4,0.6-4.7,0.9-7.1c0.5-0.5,0.9-1.3,0.8-2.2c1.7-3.8,3.9-7.1,6.3-9.9c2.1-0.9,4.1-2,6-3.4
				c1.6-0.1,3.1,0.4,4.6,1.4c2.7,2.1,2.4,3.9,2.3,4.5C452.3,264.1,448,269.1,442.4,272.6L442.4,272.6z M438.9,296.6
				c-2.3,0.2-4.6,1.2-6.7,2.8c-1.3,0.4-2.6,0.7-3.9,0.8c0.4-2.2,0.7-4.6,1.1-7c0.5-0.5,0.8-1.2,0.9-2.1c1.9-3.7,4.1-6.9,6.6-9.5
				c2.1-0.8,4.2-1.8,6.2-3.1c1.6,0,3.1,0.6,4.5,1.7c2.7,2.2,2.3,4.1,2.2,4.6C449.3,288.2,444.7,293.1,438.9,296.6z M435.1,319.8
				c-2.5,0-4.9,0.8-7.1,2.6c-1.2,0.2-2.4,0.5-3.6,0.6c0.5-2.2,0.9-4.6,1.3-6.9c0.5-0.4,0.9-1.2,0.9-2.1c2-3.7,4.4-6.7,7-9.2
				c2-0.7,4-1.5,5.9-2.5c1.6,0,3.3,0.7,4.7,2c2.5,2.4,2.2,4.1,2.1,4.6c-0.6,3.3-5.3,7.8-11.1,10.6L435.1,319.8z M419.6,345.3
				c0.5-2.2,1-4.5,1.5-6.9c0.5-0.4,0.9-1.1,0.9-2c2.1-3.5,4.6-6.5,7.3-8.7c2-0.6,4-1.3,6-2.1c1.6,0.1,3.2,0.9,4.6,2.2
				c2.4,2.5,2.1,4.1,1.9,4.7c-1.1,5.4-12.3,12.3-22.3,12.4L419.6,345.3z M403.2,315.3c0.4-1.5,2.2-1.8,3.5-1.8c1.5,0,3,0.5,4.4,1.5
				c1.3,2.1,2.7,4.1,4.2,6.1c1.5,3.8,2.5,8,2.9,12.4c-0.7,3.1-1.3,6.3-2,9.3c-7.6-9.9-14-23.4-12.9-28v0.4L403.2,315.3L403.2,315.3z
				"/>
			<g>
				<g>
					<path d="M199.3,390.6c-1.5,0.8-2.7,1.9-3.6,3.3c-1,1.3-2.2,4.1-3.7,8.5c-1.5,4.3-3,7.8-4.5,10.6c-1.5,2.7-3.5,5.1-6.1,7
						s-5.6,3.1-9,3.3c-3.4,0.2-6.9-0.4-10.3-1.9c-3.1-1.4-5.2-3.1-6.4-5.1s-1.4-4.1-0.6-6.4c0.3-0.8,0.6-1.4,0.9-2
						c1.4-0.5,2.9-0.7,4.6-0.7c1.7,0,2.8,0,3.3,0.2c0.8,0.4,1,1.2,0.6,2.4c-0.1,0.2-0.4,0.8-0.9,2c-0.6,1.1-0.9,1.8-1,2
						c-0.9,2.7-0.1,4.7,2.3,5.7c2.5,1.1,5.1,0.4,7.8-2c2.7-2.5,5.3-6.6,7.7-12.6c2.5-6,4.6-9.9,6.6-11.9c1.9-1.9,4-3.2,6.3-3.9
						c2.3-0.6,3.9-0.8,5-0.5C198.5,388.8,198.9,389.5,199.3,390.6z M195.3,403.8c2.3,0.7,4.2,0.2,5.7-1.4c1.5-1.7,2.4-3.7,2.9-6
						c0.6-3.2,0.2-6-1.3-8.5s-3.8-4.1-6.9-5.2c-4.2-1.4-8.3-1.4-12.4,0c-4.1,1.4-6.8,3.7-7.8,7c-0.6,2,0,3.8,1.7,5.6
						c0.4,0.5,0.6,0.7,0.6,0.9c-0.1,0.5-0.2,0.6-0.3,1.1s-1.2,0.8-3.1,0.8c-1.9,0-3.2-0.1-3.7-0.4c-0.8-0.4-1.5-1.4-1.9-3.2
						s-0.3-3.4,0.2-5c0.9-2.6,2.8-5,5.7-7s6.4-3.2,10.4-3.7c4-0.4,8.3,0.1,12.9,1.7c4.9,1.5,8.7,3.9,11.4,7.1
						c2.7,3.2,3.8,6.6,3.1,10.4c-0.9,5.7-5.3,8.7-13.1,8.6c5.4,3.7,7.8,8.2,6.8,13.8c-0.7,4.1-2.9,7.3-6.6,9.5s-7.8,2.5-12.3,1.1
						c-1.9-0.6-3.5-1.5-4.6-2.7s-1.5-2.4-1.3-3.4c0.2-0.7,0.8-1.5,1.9-2.5c1.1-0.9,2-1.3,2.7-1.1c0.9,0.4,1.3,1.7,0.9,3.9
						c-0.3,1.8,0.1,2.8,1,3.2c1.6,0.5,3.4-0.8,5.3-3.9c1.9-3.1,3.2-6.4,4-9.9c0.9-4.3-0.1-7-2.8-8.4
						C194.7,405.2,194.9,404.7,195.3,403.8z"/>
					<path d="M246.2,433.3c-4,3.4-6.9,5.4-8.6,6.4s-3.4,1.3-4.9,1.1c-3.8-0.5-5.3-4-4.4-10.6c-2.7,3.1-5.2,5.2-7.4,6.5
						c-2.2,1.3-4.4,1.7-6.6,1.3c-2.1-0.5-3.8-1.8-4.9-4c-1.2-2.2-1.5-4.8-1-7.6c0.6-3.5,2.1-6.6,4.5-9.5c2.4-2.8,5.1-4.8,8.2-6.4
						c3.1-1.4,5.7-2,7.9-1.8c2.7,0.4,4.5,2,5.4,4.8c2.9-1.3,4.3-1.9,7.1-3.3c0.7,0.1,1.1,0.1,1.9,0.1c-1.4,4.1-2.1,6.1-3.6,10.2
						c-1.9,5.1-3,8.6-3.2,10.5c-0.2,2,0.5,3.2,1.9,3.3c0.9,0.1,2-0.4,3.2-1.2c1.2-0.9,2.8-2.2,4.9-4.1
						C246.3,430.8,246.2,431.6,246.2,433.3z M220,432.1c2.4,0.5,4.9-1.2,7.3-5c2.5-3.8,3.8-7.3,4.2-10.8c0.1-1.3-0.1-2.4-0.5-3.2
						c-0.5-0.8-1.2-1.3-2.1-1.4c-2.2-0.4-4.5,1.3-7.1,5c-2.5,3.7-4.1,7.1-4.5,10.5c-0.2,1.3,0,2.4,0.5,3.3S219,432,220,432.1z"/>
					<path d="M281,432.8c-5,6.4-9.6,9.6-13.2,9.6c-1.8,0-3.2-0.5-4.4-1.8c-1.2-1.2-1.8-2.7-1.8-4.5c0-0.8,0.1-2.1,0.4-3.8
						c0.3-1.7,0.4-2.6,0.4-2.8c0-1.1-0.6-1.7-1.8-1.7c-1.2,0-1.8-0.5-1.8-1.4c0-0.8,0.2-1.4,0.5-1.7c0.3-0.4,1-0.5,1.9-0.5
						c2.5,0,4.4-0.7,5.6-1.7s1.8-2.2,1.8-3.7c0-0.9-0.4-1.8-1.1-2.4s-1.5-0.9-2.6-0.9c-0.6,0-1.1,0.1-1.6,0.2s-1.1,0.4-1.5,0.7
						c-0.5,0.4-1.1,0.7-1.6,1.2s-1.1,1.1-1.7,1.8c-0.6,0.7-1.3,1.5-2,2.5c-0.4,0.5-0.9,2.8-1.5,7c-0.3,2.1-0.5,4.1-0.7,6
						c-0.1,1.7-0.2,3.7-0.2,5.8c-3.3,0.5-5,0.6-8.3,0.9c-0.2-1.8-0.3-4-0.2-6.6c0.3-7.1,1.6-13.9,3.7-20.3s5.2-13,9.1-19.7
						c3-1.3,5.6-2.5,7.7-3.3s3.3-1.3,3.6-1.3c0.5,0,1,0.5,1.5,1.7c0.5,1.1,0.8,2.4,0.9,3.5c0.1,2.1-0.5,4.5-1.6,7.1
						c-1.2,2.6-3.1,5.7-5.8,9.3c1.9-0.6,3.4-0.9,4.7-1.1c2.1-0.1,3.7,0.4,5.1,1.4s2.1,2.5,2.2,4.1c0.2,3.9-3.1,7.2-9.9,9.2
						c2.7,0.6,4.1,2.1,4.2,4.7c0,1.3-0.1,1.9-0.1,3.2c0,1.4,0.7,2.1,2.1,2.1c1,0,2-0.6,3.2-1.5c1.2-1.1,2.8-2.8,4.8-5.7
						C280.9,430.3,280.9,431.2,281,432.8z M257.9,416.4c0.9-1.1,1.3-1.5,2.2-2.6c6.6-7.8,9.4-13.6,9.3-16.8c0-1.5-0.6-2.2-1.8-2.1
						c-1.3,0-2.7,1.8-4.4,5.3C261.6,403.8,259.8,409.1,257.9,416.4z"/>
					<path d="M307.5,429.2c-2.6,3.5-5,6.1-7.3,8c-2.3,1.8-4.9,3-7.9,3.3c-3.3,0.5-6.1-0.4-8.2-2.2c-2.2-1.9-3.3-4.5-3.5-7.9
						c-0.3-5.1,1.1-9.7,4.1-14.2s6.4-6.9,10.3-7.6c2-0.4,3.7,0,5.1,0.8c1.4,0.9,2.2,2.2,2.5,4.1c0.7,4.8-3.8,9.9-13.8,14.3
						c1.3,4.5,4,6.5,8.1,5.9c1.6-0.2,3-0.9,4.3-2s3.2-3.3,5.6-6.7C307.1,426.7,307.2,427.5,307.5,429.2z M288.4,425.5
						c5.8-2.4,8.3-6,7.8-10.6c-0.3-2.2-1.2-3.3-2.7-3.1s-2.7,1.7-3.9,4.1C288.5,418.5,288.1,421.7,288.4,425.5z"/>
					<path d="M330.6,423.3c-2.5,3.9-4.9,6.7-7.1,8.9c-2.2,2-4.4,3.3-6.6,3.9c-2.6,0.6-4.8,0.1-6.7-1.5c-1.9-1.7-3-4.1-3.5-7.4
						c-0.7-5-0.5-11.1,0.5-18.4c0.9-7.3,2.3-14.2,3.9-20.7c2.9-2.1,4.3-3.2,7.1-5.3c0.2-0.1,0.4-0.2,0.5-0.4
						c0.6-0.1,1.2,0.2,1.7,1.1c0.6,0.8,1.1,2.1,1.4,3.8c1,4.7,1,9.6-0.1,14.5s-3.4,10.6-7.1,16.8c0.2,2.5,0.4,4.1,0.6,5.1
						c0.3,2,1,3.5,2,4.6s2.1,1.3,3.3,1.1c1.3-0.4,2.5-1.2,3.8-2.5c1.2-1.3,3-3.8,5.3-7.6C330.1,420.9,330.3,421.7,330.6,423.3z
						 M314.9,413.3c2.3-4,3.8-8.3,4.7-12.8c0.9-4.5,1-8.3,0.4-11.2c-0.2-0.8-0.4-1.5-0.8-2c-0.3-0.5-0.7-0.6-1-0.6
						c-0.8,0.2-1.4,2.6-2.1,7.3C315.4,398.8,315,405.2,314.9,413.3z"/>
					<path d="M367.1,408.8c-1.9,4.1-9.2,10-11.2,14.6c-1.6,3.8-1.7,12-3.9,15.6c-2.2,3.5-4.8,5.9-8,7c-1.6,0.6-3,0.5-4.1-0.1
						c-1.2-0.6-1.9-1.7-2.3-3.2c-1-4.5,2.5-9.9,10-16.8c0.1-3.3,0.1-4.8,0.1-8.2c-3,6.5-6.3,10.3-9.7,11.3c-1.8,0.6-3.5,0.4-4.9-0.7
						s-2.4-2.8-2.9-5.3c-0.8-3.5-0.8-7.4-0.2-11.9c0.5-3.9,0.7-5.9,1.1-9.8c3.6-1.9,5.4-3,8.9-5.1c-0.5,4.6-0.8,7-1.4,11.6
						c-0.6,5.6-0.7,9.7-0.1,12.2c0.5,2,1.5,2.8,2.9,2.4s2.8-2.2,4-5.2s1.9-6.4,2.2-10.2c0.3-4.8,0.4-7.3,0.6-12.2
						c3.3-2.1,4.9-3.3,8.1-5.6c0.2,11.9,0.2,18-0.2,30c4.6-4.6,7.8-9.6,9.8-14.8C366.3,406.6,366.6,407.3,367.1,408.8z M347.6,430
						c-2.6,2.4-4.5,4.5-5.7,6.6s-1.7,3.9-1.3,5.4c0.4,1.5,1.2,2.1,2.7,1.7C345.9,442.7,347.4,438.1,347.6,430z"/>
				</g>
			</g>
		</g>
	</g>
</g>
</svg>
