<svg width="261" height="224" fill="none" xmlns="http://www.w3.org/2000/svg"><g clip-path="url(#clip0)"><path d="M210.017 218.22L35.437 54.817 62.737 0l191.95 216.878-44.67 1.342zM130.499 46.235c5.833 0 10.562-4.877 10.562-10.892 0-6.016-4.729-10.892-10.562-10.892-5.834 0-10.563 4.876-10.563 10.892 0 6.015 4.729 10.892 10.563 10.892z" fill="#C6C9C7"/><path d="M176.909 61.418c1.945 0 3.521-1.626 3.521-3.63 0-2.006-1.576-3.631-3.521-3.631-1.944 0-3.521 1.625-3.521 3.63s1.577 3.631 3.521 3.631zM176.909 90.134c1.945 0 3.521-1.626 3.521-3.631s-1.576-3.63-3.521-3.63c-1.944 0-3.521 1.625-3.521 3.63s1.577 3.63 3.521 3.63zM212.117 97.395c1.945 0 3.521-1.625 3.521-3.63 0-2.006-1.576-3.631-3.521-3.631-1.944 0-3.521 1.625-3.521 3.63 0 2.006 1.577 3.631 3.521 3.631z" fill="#723B20"/><path d="M130.499 223.48c71.592 0 129.629-2.956 129.629-6.602 0-3.645-58.037-6.601-129.629-6.601-71.593 0-129.63 2.956-129.63 6.601 0 3.646 58.037 6.602 129.63 6.602z" fill="#C6C9C7"/><path d="M206.329 109.659c-1.47-2.501-6.606-2.436-6.606-2.436-4.676 7.164-15.916-.446-15.916-.446-8.348 3.851-13.442-8.422-13.442-8.422-11.233-1.733-9.497-13.898-9.497-13.898-5.589-1.157-4.021-11.577-4.021-11.577s3.101-2.623 1.575-4.541c-.97-1.22-1.03-4.721-.946-7.11a74.961 74.961 0 00-22.496-3.442c-42.602 0-77.138 35.614-77.138 79.546 0 43.932 34.536 79.545 77.138 79.545 42.602 0 77.137-35.613 77.137-79.545a81.553 81.553 0 00-4.901-27.948c-.396.461-.703.587-.887.274z" fill="#723B20"/><path opacity=".1" d="M206.329 109.659c-1.47-2.501-6.606-2.436-6.606-2.436-4.676 7.164-15.916-.446-15.916-.446-8.348 3.851-13.442-8.422-13.442-8.422-11.233-1.733-9.497-13.898-9.497-13.898-5.589-1.157-4.021-11.577-4.021-11.577s3.101-2.623 1.575-4.541c-.97-1.22-1.03-4.721-.946-7.11a74.961 74.961 0 00-22.496-3.442c-42.602 0-77.138 35.614-77.138 79.546 0 43.932 34.536 79.545 77.138 79.545 42.602 0 77.137-35.613 77.137-79.545a81.553 81.553 0 00-4.901-27.948c-.396.461-.703.587-.887.274z" fill="#000"/><path d="M201.758 109.345c-1.399-2.379-6.283-2.317-6.283-2.317-4.447 6.813-15.137-.424-15.137-.424-7.939 3.663-12.784-8.01-12.784-8.01-10.683-1.647-9.032-13.218-9.032-13.218-5.316-1.1-3.824-11.01-3.824-11.01s2.949-2.494 1.498-4.319c-.923-1.16-.98-4.49-.9-6.762a71.288 71.288 0 00-21.395-3.273c-40.517 0-73.362 33.87-73.362 75.652 0 41.781 32.845 75.652 73.362 75.652 40.516 0 73.361-33.871 73.361-75.652a77.572 77.572 0 00-4.661-26.58c-.376.438-.668.559-.843.261z" fill="#723B20"/><path d="M125.141 104.735s-12.651-8.302-24.726 0c-4.227 2.906-6.34 7.046-7.302 11.201-1.71 7.388.166 15.176 4.737 21.131l27.319 35.585a8.137 8.137 0 003.625 2.721 7.886 7.886 0 004.651.28 8.047 8.047 0 002.979-1.466 8.335 8.335 0 002.169-2.565l19-34.406c3.514-6.266 4.955-13.541 4.104-20.726-.891-7.076-4.186-14.535-13.554-17.092 0 0-10.926-4.744-23.002 5.337z" fill="#711604"/><path opacity=".1" d="M125.141 104.735s-12.651-8.302-24.726 0c-4.227 2.906-6.34 7.046-7.302 11.201-1.71 7.388.166 15.176 4.737 21.131l27.319 35.585a8.137 8.137 0 003.625 2.721 7.886 7.886 0 004.651.28 8.047 8.047 0 002.979-1.466 8.335 8.335 0 002.169-2.565l19-34.406c3.514-6.266 4.955-13.541 4.104-20.726-.891-7.076-4.186-14.535-13.554-17.092 0 0-10.926-4.744-23.002 5.337z" fill="#000"/><path d="M125.27 106.738s-11.867-7.787-23.195 0c-3.965 2.726-5.947 6.61-6.85 10.508-1.603 6.93.156 14.236 4.444 19.823l25.627 33.381a7.634 7.634 0 003.401 2.552 7.389 7.389 0 004.363.262 7.554 7.554 0 002.794-1.375 7.811 7.811 0 002.035-2.406l17.823-32.275c3.297-5.878 4.648-12.703 3.85-19.443-.836-6.637-3.927-13.634-12.715-16.033 0 0-10.249-4.45-21.577 5.006z" fill="#711604"/><path opacity=".1" d="M125.732 120.092s-5.774-3.789-11.285 0c-1.712 1.194-2.906 3.027-3.333 5.112a11.692 11.692 0 00.009 5.078 11.497 11.497 0 002.153 4.566s14.782 17.949 16.164 17.63l.082-.02c.996-.246 11.02-17.542 11.02-17.542a15.602 15.602 0 001.874-9.459c-.407-3.23-1.911-6.634-6.186-7.801 0 0-4.987-2.165-10.498 2.436zM89.668 148.458l1.618 2.781 3.237 5.563 1.079 3.894-2.158 3.337 2.697 6.676 1.079 3.893-2.158 2.225 4.316 3.338M168.963 123.982v4.451l-2.697 7.231-1.618 3.894 2.697 5.006 1.079 3.338 4.315 1.669 1.619 2.781v6.675M196.474 128.433l-4.315 2.781s-2.158 1.113-2.158 1.669v4.45M177.055 112.857l1.078 5.563-1.078 3.894M181.37 162.921l-3.237 5.006-3.775 3.338v2.225l2.157 2.781v3.338l-1.618 3.337M150.623 68.356h-5.394l-4.316 3.894-7.012 3.894-3.237 2.781v1.113l-7.012 3.894-2.158 3.894M92.365 77.813L87.51 87.826l-1.618 3.893-3.776 5.007s-2.697 5.006-3.237 5.562c-.539.557-4.315 1.669-4.315 1.669l5.394 5.563M70.788 116.195l-1.079 7.231 1.08 4.451v7.787l-3.237 14.463 3.236 3.894 3.776 5.006M78.88 119.532l3.236 1.669 2.158 7.232 4.315-1.113 2.158 3.894M138.216 191.847l8.631-1.113 3.776-3.894h5.394M85.892 180.165l3.237 3.894 5.394 1.669 3.776 1.112 1.078 6.119M149.544 161.252l3.776-2.781 1.618-4.45 3.237-.557 1.618-5.562" fill="#000"/><path d="M51.709 21.48h9.031c2.852 0 5.587 1.168 7.603 3.248 2.017 2.08 3.15 4.9 3.15 7.84v20.401H40.956V32.568c0-1.456.278-2.898.818-4.243a11.116 11.116 0 012.33-3.597 10.736 10.736 0 013.489-2.404 10.468 10.468 0 014.115-.844z" fill="#F0D458"/><path d="M60.981 196.441s-.96 6.272-2.56 7.262c-1.6.99 8.322 3.3 8.322 3.3l1.6-9.902-7.362-.66z" fill="#FBBEBE"/><path d="M72.824 124.817l3.52 4.291-1.6 14.853-1.28 29.376s2.56 25.415 0 26.075c-2.56.66-14.083.33-13.763-1.32.32-1.651.64-2.971 1.28-5.281.64-2.311-.64-10.562-.64-10.562l1.6-9.242-5.76-39.938 16.643-8.252z" fill="#711604"/><path d="M61.301 202.713s-3.52-.661-3.84 0c-.32.66-6.402 7.591-7.362 7.591s-8.002 6.601-.64 6.931c7.361.33 19.524-5.611 19.524-5.611s-1.79-8.399-1.695-7.995c.095.404-5.987.734-5.987-.916z" fill="#2A0800"/><path d="M57.46 187.53s8.962 10.232 9.283 11.222c.32.99 5.12 0 5.12 0l1.921-6.602-1.6-2.31-8.962-7.591-5.762 5.281z" fill="#FBBEBE"/><path d="M70.263 195.121l-4.64 4.505s5.92 9.358 5.92 10.348c0 .99.32 9.242 3.521 7.922 3.201-1.321 3.521-14.523 3.521-14.523s-.32-13.533-2.24-14.523c-1.92-.99-6.13-.678-6.13-.678s2.609 6.619.048 6.949z" fill="#2A0800"/><path d="M43.697 95.442s-1.6 5.281-1.92 6.601c-.32 1.32-2.24 4.951-2.24 10.562s.64 12.212 0 12.872c-.64.661-10.883 37.628-6.402 41.589 4.48 3.96 19.204 17.163 20.165 18.813.96 1.651 1.28 5.611 3.2 4.951 1.92-.66 9.282-7.261 9.602-8.581.32-1.321-4.16-3.631-4.16-3.631s-8.963-13.533-11.203-13.203c-2.24.33-1.92-1.65-1.6-2.64.32-.99.96-1.651 0-1.651s-.32-2.64 0-3.96c.32-1.321 7.681-19.144 7.681-19.144l19.525-8.912s-.96-24.095-8.002-30.696l-1.6-3.96s-17.924-1.32-23.046.99z" fill="#711604"/><path d="M52.66 43.291s1.6 11.553-2.241 12.213c-3.841.66-7.042.33-7.042.66s9.602 10.562 9.602 10.562l8.962-.66 8.002-8.912s-7.361-1.32-7.361-5.941c0-4.62-.32-7.922-.32-7.922h-9.603z" fill="#FBBEBE"/><path opacity=".1" d="M51.7 43.291s1.6 11.553-2.241 12.213c-3.841.66-7.042.33-7.042.66s9.602 10.562 9.602 10.562l8.962-.66 8.002-8.912s-7.362-1.32-7.362-5.941c0-4.62-.32-7.922-.32-7.922H51.7z" fill="#000"/><path d="M56.66 48.077c5.48 0 9.922-4.58 9.922-10.232 0-5.65-4.442-10.232-9.922-10.232s-9.922 4.581-9.922 10.232c0 5.651 4.442 10.232 9.922 10.232z" fill="#FBBEBE"/><path d="M48.174 54.07s-12.74 1.684-13.72 6.063c-.98 4.378 6.534 31.663 7.514 34.021.98 2.358.653 4.043.653 4.043A12.747 12.747 0 0147.6 95.85c1.803-.407 3.67-.41 5.474-.011 6.206 1.347 15.026.673 15.026.673s2.94-12.463 3.593-13.81c.653-1.348 3.267-8.759 3.267-10.78 0-2.02 3.92-10.442 3.92-10.442s-1.96-6.063-9.147-5.726c0 0-3.135-1.447-4.017-.387-.883 1.06-5.782 5.776-11.989 3.755-6.206-2.021-5.553-5.053-5.553-5.053z" fill="#FFE1C2"/><path d="M38.048 59.796h-3.593l-1.96 26.61s7.186 2.022 8.166.674c.98-1.347-2.613-27.284-2.613-27.284zM71.864 60.125l6.081 1.65s4.481 16.833 4.801 17.163c.32.33.64 2.31.64 2.31s0 .33.64 1.321c.64.99 1.6.33.96 1.65-.64 1.32-1.6.66-.96 1.98.64 1.321.32 4.952.32 4.952s-1.6-6.271-7.361-4.621l-3.841-17.824-1.28-8.581z" fill="#FFE1C2"/><path d="M64.407 35.357H48.99l-3.49-8.273h21.525l-2.618 8.273z" fill="#F0D458"/><path d="M46.967 41.41c.412-.123.488-1.14.17-2.273-.319-1.133-.91-1.95-1.322-1.828-.412.123-.488 1.141-.17 2.273.319 1.133.91 1.951 1.322 1.828zM67.825 39.583c.319-1.133.243-2.15-.17-2.274-.411-.123-1.003.695-1.321 1.828-.318 1.132-.242 2.15.17 2.273.411.123 1.003-.695 1.321-1.827z" fill="#FFB9B9"/><path d="M66.164 83.202c3.182 0 5.761-2.66 5.761-5.94 0-3.282-2.58-5.942-5.761-5.942-3.182 0-5.761 2.66-5.761 5.941 0 3.281 2.579 5.941 5.76 5.941z" fill="#723B20"/><path opacity=".1" d="M66.164 83.202c3.182 0 5.761-2.66 5.761-5.94 0-3.282-2.58-5.942-5.761-5.942-3.182 0-5.761 2.66-5.761 5.941 0 3.281 2.579 5.941 5.76 5.941z" fill="#000"/><path d="M66.164 82.613c2.866 0 5.19-2.396 5.19-5.352 0-2.956-2.324-5.352-5.19-5.352-2.866 0-5.19 2.396-5.19 5.352 0 2.956 2.324 5.352 5.19 5.352z" fill="#723B20"/><path opacity=".1" d="M65.935 74.236s-1.322-.868-2.585 0a1.886 1.886 0 00-.763 1.17 2.68 2.68 0 00.002 1.163c.086.383.255.74.493 1.046l2.856 3.72a.85.85 0 00.379.284c.15.056.312.068.467.034l.019-.005a.84.84 0 00.538-.42l1.986-3.597a3.573 3.573 0 00.429-2.167 1.981 1.981 0 00-.424-1.133 1.882 1.882 0 00-.993-.653s-1.142-.496-2.404.558z" fill="#000"/><path d="M65.948 74.445s-1.24-.814-2.424 0c-.368.257-.624.65-.716 1.098-.08.36-.079.732.002 1.091.08.36.238.695.462.981l2.68 3.49a.798.798 0 00.355.266c.14.053.292.064.438.032l.018-.004a.789.789 0 00.504-.395l1.863-3.374a3.353 3.353 0 00.403-2.032 1.858 1.858 0 00-.398-1.063 1.765 1.765 0 00-.931-.613s-1.072-.465-2.255.523z" fill="#711604"/><path opacity=".1" d="M65.997 75.84a1.112 1.112 0 00-1.18 0 .86.86 0 00-.348.535 1.223 1.223 0 00.226 1.008s1.545 1.876 1.69 1.843l.008-.002c.104-.026 1.152-1.834 1.152-1.834a1.63 1.63 0 00.196-.988.904.904 0 00-.194-.517.86.86 0 00-.453-.299 1.088 1.088 0 00-1.097.255z" fill="#000"/><path d="M61.043 86.503c3.182 0 5.761-2.66 5.761-5.941 0-3.281-2.58-5.941-5.761-5.941-3.182 0-5.762 2.66-5.762 5.94 0 3.282 2.58 5.942 5.762 5.942z" fill="#723B20"/><path opacity=".1" d="M61.043 86.503c3.182 0 5.761-2.66 5.761-5.941 0-3.281-2.58-5.941-5.761-5.941-3.182 0-5.762 2.66-5.762 5.94 0 3.282 2.58 5.942 5.762 5.942z" fill="#000"/><path d="M61.043 85.914c2.866 0 5.19-2.396 5.19-5.352 0-2.956-2.324-5.352-5.19-5.352-2.867 0-5.19 2.396-5.19 5.352 0 2.956 2.323 5.352 5.19 5.352z" fill="#723B20"/><path opacity=".1" d="M60.814 77.536s-1.322-.867-2.585 0a1.886 1.886 0 00-.763 1.171 2.68 2.68 0 00.002 1.163c.086.383.254.74.493 1.046l2.856 3.72a.85.85 0 00.379.284c.15.056.311.068.467.034l.019-.005a.84.84 0 00.311-.153.872.872 0 00.227-.268l1.986-3.597a3.574 3.574 0 00.429-2.166 1.982 1.982 0 00-.424-1.133 1.882 1.882 0 00-.993-.654s-1.142-.495-2.404.558z" fill="#000"/><path d="M60.827 77.746s-1.24-.814-2.424 0c-.368.256-.625.65-.716 1.098-.08.36-.079.732.002 1.091.08.359.238.694.462.981l2.679 3.49a.798.798 0 00.355.266c.14.053.293.064.439.032l.017-.004a.79.79 0 00.505-.396l1.863-3.373a3.353 3.353 0 00.403-2.033 1.858 1.858 0 00-.398-1.063 1.765 1.765 0 00-.931-.612s-1.072-.466-2.256.523z" fill="#711604"/><path opacity=".1" d="M60.876 79.142a1.113 1.113 0 00-1.18 0 .86.86 0 00-.348.534 1.223 1.223 0 00.226 1.008s1.545 1.876 1.69 1.843l.008-.002c.104-.026 1.152-1.834 1.152-1.834.167-.299.236-.646.195-.989a.905.905 0 00-.193-.517.859.859 0 00-.453-.298 1.088 1.088 0 00-1.097.255z" fill="#000"/><path d="M56.65 65.708c-.14-.238-.631-.232-.631-.232-.446.684-1.519-.043-1.519-.043-.797.368-1.283-.804-1.283-.804-1.072-.165-.906-1.326-.906-1.326-.534-.11-.384-1.105-.384-1.105s.296-.25.15-.433a1.372 1.372 0 01-.09-.679 7.148 7.148 0 00-4.839.2 7.427 7.427 0 00-3.67 3.258 7.786 7.786 0 00-.912 4.905 7.665 7.665 0 002.243 4.426 7.255 7.255 0 004.425 2.03 7.188 7.188 0 004.69-1.247 7.566 7.566 0 002.922-3.983 7.81 7.81 0 00-.112-4.993c-.038.044-.067.056-.085.026z" fill="#723B20"/><path opacity=".1" d="M56.65 65.708c-.14-.238-.631-.232-.631-.232-.446.684-1.519-.043-1.519-.043-.797.368-1.283-.804-1.283-.804-1.072-.165-.906-1.326-.906-1.326-.534-.11-.384-1.105-.384-1.105s.296-.25.15-.433a1.372 1.372 0 01-.09-.679 7.148 7.148 0 00-4.839.2 7.427 7.427 0 00-3.67 3.258 7.786 7.786 0 00-.912 4.905 7.665 7.665 0 002.243 4.426 7.255 7.255 0 004.425 2.03 7.188 7.188 0 004.69-1.247 7.566 7.566 0 002.922-3.983 7.81 7.81 0 00-.112-4.993c-.038.044-.067.056-.085.026z" fill="#000"/><path d="M56.213 65.678c-.133-.227-.6-.22-.6-.22-.424.65-1.444-.041-1.444-.041-.758.35-1.22-.765-1.22-.765-1.02-.157-.862-1.261-.862-1.261-.507-.105-.365-1.05-.365-1.05s.281-.239.143-.413a1.304 1.304 0 01-.086-.645 6.798 6.798 0 00-4.602.19 7.063 7.063 0 00-3.49 3.098 7.405 7.405 0 00-.867 4.665 7.29 7.29 0 002.133 4.21 6.9 6.9 0 004.208 1.93 6.836 6.836 0 004.46-1.186 7.196 7.196 0 002.78-3.788 7.428 7.428 0 00-.107-4.749c-.036.042-.064.054-.08.025z" fill="#723B20"/><path d="M48.901 65.238s-1.207-.792-2.36 0c-.357.25-.607.633-.696 1.07-.078.349-.077.712.001 1.061.079.35.233.676.45.955l2.608 3.396c.09.118.21.209.346.26a.753.753 0 00.427.03l.017-.004a.767.767 0 00.491-.384l1.813-3.284a3.264 3.264 0 00.392-1.978 1.81 1.81 0 00-.387-1.034 1.718 1.718 0 00-.907-.597s-1.042-.453-2.195.51z" fill="#711604"/><path opacity=".1" d="M48.901 65.238s-1.207-.792-2.36 0c-.357.25-.607.633-.696 1.07-.078.349-.077.712.001 1.061.079.35.233.676.45.955l2.608 3.396c.09.118.21.209.346.26a.753.753 0 00.427.03l.017-.004a.767.767 0 00.491-.384l1.813-3.284a3.264 3.264 0 00.392-1.978 1.81 1.81 0 00-.387-1.034 1.718 1.718 0 00-.907-.597s-1.042-.453-2.195.51z" fill="#000"/><path d="M48.913 65.43s-1.132-.744-2.213 0c-.336.234-.57.593-.654 1.002-.072.328-.072.669.002.996.073.328.218.634.422.896l2.446 3.186a.729.729 0 00.325.243.706.706 0 00.4.03l.016-.005a.72.72 0 00.46-.36l1.702-3.08a3.06 3.06 0 00.367-1.856 1.697 1.697 0 00-.363-.97 1.612 1.612 0 00-.85-.56s-.978-.425-2.06.478z" fill="#711604"/><path opacity=".1" d="M48.958 66.704a1.016 1.016 0 00-1.077 0 .786.786 0 00-.318.488 1.116 1.116 0 00.206.92s1.41 1.713 1.543 1.683l.007-.002c.379-.539.73-1.098 1.052-1.674.153-.273.216-.59.179-.903a.826.826 0 00-.177-.472.785.785 0 00-.414-.272.994.994 0 00-1.001.232zM45.516 69.411l.154.266.31.53.102.372-.206.319.258.636.102.372-.205.213.412.318M53.083 67.075v.425l-.257.69-.154.372.257.478.103.318.412.16.154.265v.637M55.709 67.5l-.412.266s-.206.106-.206.159v.424M53.855 66.013l.104.531-.104.372M54.267 70.791l-.309.478-.36.319v.212l.206.266v.318l-.154.319M51.333 61.767h-.515l-.412.371-.669.372-.309.265v.107l-.67.37-.205.372M45.773 62.67l-.463.955-.155.371-.36.478s-.257.478-.309.53c-.131.069-.27.122-.412.16l.515.531M43.714 66.332l-.103.69.103.425v.743l-.309 1.38.309.372.36.478M44.486 66.65l.31.16.205.69.412-.106.206.371M50.149 73.552l.824-.106.36-.372h.515M45.156 72.437l.308.372.515.159.36.106.104.584M51.23 70.632l.36-.265.155-.425.309-.053.154-.53" fill="#000"/><path d="M33.455 83.56l-.96 2.64s-.64 8.581 3.2 8.251c3.841-.33 6.082-5.28 6.082-5.28s-2.24-6.272-4.801-5.612c-2.56.66-3.521 0-3.521 0z" fill="#FFE1C2"/><path d="M36.656 85.21s-1.92 5.94.32 5.94c2.24 0 6.401-3.63 6.721-6.6.32-2.971 6.082-14.193 1.92-13.203-4.16.99-6.08 9.242-6.08 9.242l-2.881 4.62zM82.426 85.54l2 3.446s.88 6.456-3.6 6.456c-4.481 0-10.883-6.272-10.883-6.272s-3.2-1.32-5.12-.99c-1.921.33-12.484 0-8.003-5.61 4.481-5.612 12.163 0 12.163 0l8.002 3.96 4.16-2.31 1.281 1.32z" fill="#FBBEBE"/><path d="M80.666 81.084l-3.201 5.28s7.362.991 8.002 2.641c.64 1.65-2.88-8.581-2.88-8.581l-1.921.66z" fill="#FFE1C2"/></g><defs><clipPath id="clip0"><path fill="#fff" transform="translate(.869)" d="M0 0h259.259v223.48H0z"/></clipPath></defs></svg>