<svg id="a87032b8-5b37-4b7e-a4d9-4dbfbe394641" xmlns="http://www.w3.org/2000/svg" viewBox="0 0 744.84804 747.077">
    <defs>
        <style>
            .cls-1{fill:#c6c9c7;}.cls-2{fill:#fff;}.cls-3{fill:#711604;}.cls-4{fill:#3f3d56;}.cls-5{fill:#ffb8b8;}.cls-6{fill:#2a0800;}.cls-7{fill:#ffe1c2;}.cls-8{fill:#f0d458;}
        </style>
    </defs>
    <path id="fa3b9e12-7275-481e-bee9-64fd9595a50d" class="cls-1"
          d="M71.629,629.34705l-6.56-25.872a335.9625,335.9625,0,0,0-35.643-12.788l-.828,12.024L25.24,589.464C10.219,585.17,0,583.281,0,583.281s13.8,52.489,42.754,92.617l33.734,5.926-26.207,3.779A135.92442,135.92442,0,0,0,62,698.025c42.115,39.092,89.024,57.028,104.773,40.06s-5.625-62.412-47.74-101.5c-13.056-12.119-29.457-21.844-45.875-29.5Z"
          transform="translate(0.00003 -0.00002)"/>
    <path id="bde08021-c30f-4979-a9d8-cb90b72b5ca2" class="cls-1"
          d="M134.015,601.245l7.758-25.538a335.941,335.941,0,0,0-23.9-29.371l-6.924,9.865,3.972-13.076C104.28,531.689,96.509,524.79,96.509,524.79S81.194,576.857,85.234,626.174l25.815,22.51L86.657,638.372a135.91879,135.91879,0,0,0,3.614,16.694c15.846,55.234,46.731,94.835,68.983,88.451s27.446-56.335,11.6-111.569c-4.912-17.123-13.926-33.926-24.023-48.965Z"
          transform="translate(0.00003 -0.00002)"/>
    <path id="b3ac2088-de9b-4f7f-bc99-0ed9705c1a9d" class="cls-1"
          d="M519.751,176.983h-4.092V64.883A64.883,64.883,0,0,0,450.77605,0H213.269a64.883,64.883,0,0,0-64.883,64.883v615a64.883,64.883,0,0,0,64.883,64.883H450.776a64.883,64.883,0,0,0,64.882-64.883V256.778h4.092Z"
          transform="translate(0.00003 -0.00002)"/>
    <path id="b2715b96-3117-487c-acc0-20904544b5b7" class="cls-2"
          d="M453.394,16.874h-31a23.02,23.02,0,0,1-21.316,31.714H265.013a23.02,23.02,0,0,1-21.314-31.714H214.743a48.454,48.454,0,0,0-48.454,48.454h0V679.435a48.454,48.454,0,0,0,48.454,48.454H453.394a48.454,48.454,0,0,0,48.454-48.454h0V65.327A48.454,48.454,0,0,0,453.394,16.874Z"
          transform="translate(0.00003 -0.00002)"/>
    <path id="b06d66ec-6c84-45dd-8c27-1263a6253192" class="cls-1"
          d="M303.658,261.503a24.437,24.437,0,0,1,12.23-21.174,24.45,24.45,0,1,0,0,42.345A24.43394,24.43394,0,0,1,303.658,261.503Z"
          transform="translate(0.00003 -0.00002)"/>
    <path id="e73810fe-4cf4-40cc-8c7c-ca544ce30bd4" class="cls-1"
          d="M334.395,261.503a24.436,24.436,0,0,1,12.23-21.174,24.45,24.45,0,1,0,0,42.345A24.434,24.434,0,0,1,334.395,261.503Z"
          transform="translate(0.00003 -0.00002)"/>
    <circle id="a4813fcf-056e-4514-bb8b-e6506f49341f" class="cls-3" cx="364.43405" cy="261.502" r="24.45001"/>
    <path id="bbe451c3-febc-41ba-8083-4c8307a2e73e" class="cls-1"
          d="M405.296,337.869h-142.5a5.123,5.123,0,0,1-5.117-5.117v-142.5a5.123,5.123,0,0,1,5.117-5.117h142.5a5.123,5.123,0,0,1,5.117,5.117v142.5A5.123,5.123,0,0,1,405.296,337.869Zm-142.5-150.686a3.073,3.073,0,0,0-3.07,3.07v142.5a3.073,3.073,0,0,0,3.07,3.07h142.5a3.073,3.073,0,0,0,3.07-3.07v-142.5a3.073,3.073,0,0,0-3.07-3.07Z"
          transform="translate(0.00003 -0.00002)"/>
    <rect id="bb28937d-932f-4fdf-befe-f406e51091fe" class="cls-1" x="218.56204" y="447.10194" width="218.552"
          height="2.047"/>
    <circle id="fcef55fc-4968-45b2-93bb-1a1080c85fc7" class="cls-3" cx="225.46404" cy="427.41996" r="6.902"/>
    <rect id="ff33d889-4c74-4b91-85ef-b4882cc8fe76" class="cls-1" x="218.56204" y="516.11802" width="218.552"
          height="2.047"/>
    <circle id="e8fa0310-b872-4adf-aedd-0c6eda09f3b8" class="cls-3" cx="225.46404" cy="496.43699" r="6.902"/>
    <path class="cls-3"
          d="M433.11443,594.71039H364.04607a4.505,4.505,0,0,1-4.5-4.5v-24.208a4.50492,4.50492,0,0,1,4.5-4.5h69.06836a4.50493,4.50493,0,0,1,4.5,4.5v24.208A4.50493,4.50493,0,0,1,433.11443,594.71039Z"
          transform="translate(0.00003 -0.00002)"/>
    <circle id="e12ee00d-aa4a-4413-a013-11d20b7f97f7" class="cls-3" cx="247.97803" cy="427.41996" r="6.902"/>
    <circle id="f58f497e-6949-45c8-be5f-eee2aa0f6586" class="cls-3" cx="270.49203" cy="427.41996" r="6.90201"/>
    <circle id="b4d4939a-c6e6-4f4d-ba6c-e8b05485017d" class="cls-3" cx="247.97803" cy="496.43699" r="6.902"/>
    <circle id="aff120b1-519b-4e96-ac87-836aa55663de" class="cls-3" cx="270.49203" cy="496.43699" r="6.90201"/>
    <path id="f1094013-1297-477a-ac57-08eac07c4bd5" class="cls-4"
          d="M742.066,747.077H24.08c-1.537,0-2.782-.546-2.782-1.218s1.245-1.219,2.782-1.219H742.066c1.536,0,2.782.546,2.782,1.219S743.602,747.077,742.066,747.077Z"
          transform="translate(0.00003 -0.00002)"/>
    <path class="cls-5"
          d="M564.67656,489.46143a10.09588,10.09588,0,0,1,1.41077.78729l44.85229-19.14319,1.601-11.81525,17.92157-.10955-1.05871,27.0982-59.19989,15.65582a10.61488,10.61488,0,0,1-.44751,1.20838,10.23459,10.23459,0,1,1-5.07947-13.6817Z"
          transform="translate(0.00003 -0.00002)"/>
    <polygon class="cls-5" points="636.98 735.021 624.72 735.021 618.888 687.733 636.982 687.734 636.98 735.021"/>
    <path class="cls-6" d="M615.96283,731.51776h23.64386V746.4046H601.076A14.88688,14.88688,0,0,1,615.96283,731.51776Z"
          transform="translate(0.00003 -0.00002)"/>
    <polygon class="cls-5" points="684.66 731.557 672.459 732.759 662.018 686.271 680.025 684.497 684.66 731.557"/>
    <path class="cls-6"
          d="M663.40124,730.13107l23.53-2.31762h0l1.45924,14.81515h0l-38.34515,3.77686h0A14.88688,14.88688,0,0,1,663.40124,730.13107Z"
          transform="translate(0.00003 -0.00002)"/>
    <circle class="cls-5" cx="640.39255" cy="384.57374" r="24.56104"/>
    <path class="cls-7"
          d="M621.98033,725.458a4.47089,4.47089,0,0,1-4.415-3.69727c-6.3457-35.22558-27.08789-150.40527-27.584-153.5957a1.42537,1.42537,0,0,1-.01563-.22168v-8.58789a1.48936,1.48936,0,0,1,.2793-.87207l2.74024-3.83789a1.47842,1.47842,0,0,1,1.14355-.625c15.62207-.73243,66.78418-2.87891,69.25586.209h0c2.48242,3.10352,1.60547,12.50684,1.4043,14.36035l.00976.19336L687.7841,715.77826a4.51234,4.51234,0,0,1-3.71484,5.13476l-14.35645,2.36524a4.52124,4.52124,0,0,1-5.02539-3.09277c-4.44043-14.18848-19.3291-61.918-24.48925-80.38672a.49922.49922,0,0,0-.98047.13867c.25781,17.60547.88086,62.52344,1.0957,78.03711l.02344,1.6709a4.5181,4.5181,0,0,1-4.09278,4.53613l-13.84375,1.25781C622.25963,725.45209,622.119,725.458,621.98033,725.458Z"
          transform="translate(0.00003 -0.00002)"/>
    <path id="ae7af94f-88d7-4204-9f07-e3651de85c05" class="cls-3"
          d="M624.80492,418.79233c-4.28632,2.548-6.85114,7.23044-8.32276,11.99508a113.68074,113.68074,0,0,0-4.88446,27.15943l-1.55554,27.60022L590.78709,558.717c16.68872,14.12073,26.31543,10.9115,48.78052-.63879s25.03223,3.85119,25.03223,3.85119l4.49237-62.25836,6.41839-68.03232a30.165,30.165,0,0,0-4.86145-4.67416,49.65842,49.65842,0,0,0-42.44232-8.99539Z"
          transform="translate(0.00003 -0.00002)"/>
    <path class="cls-5"
          d="M618.55058,504.239a10.52088,10.52088,0,0,1,1.50061.70392l44.34833-22.1972.736-12.02552,18.29383-1.26129.9804,27.4126-59.26586,19.59937a10.496,10.496,0,1,1-6.59327-12.23188Z"
          transform="translate(0.00003 -0.00002)"/>
    <path id="a6768b0e-63d0-4b31-8462-9b2e0b00f0fd" class="cls-3"
          d="M675.1895,431.95c10.9115,3.8512,12.83356,45.57367,12.83356,45.57367-12.83673-7.06036-28.2414,4.49317-28.2414,4.49317s-3.20917-10.91156-7.06036-25.03223a24.52988,24.52988,0,0,1,5.13434-23.10626S664.278,428.09653,675.1895,431.95Z"
          transform="translate(0.00003 -0.00002)"/>
    <path id="bfd7963f-0cf8-4885-9d3a-2c00bccda2e3" class="cls-8"
          d="M662.41521,391.069c-3.06-2.44836-7.23517,2.00174-7.23517,2.00174l-2.44843-22.03348s-15.301,1.83289-25.0935-.6116-11.32257,8.87512-11.32257,8.87512a78.58251,78.58251,0,0,1-.30585-13.7709c.61157-5.5084,8.56836-11.01676,22.64508-14.68933s21.421,12.24093,21.421,12.24093C669.86943,367.97729,665.4752,393.51743,662.41521,391.069Z"
          transform="translate(0.00003 -0.00002)"/>
</svg>