<svg xmlns="http://www.w3.org/2000/svg" viewBox="0 0 191.13 146.48">
    <defs>
        <style>
            .cls-1{isolation:isolate;}.cls-2{fill:#ff9b63;}.cls-3{fill:#f1e8d4;}.cls-4{fill:#f1dbc4;}.cls-5{fill:#f1caa9;opacity:0.5;mix-blend-mode:multiply;}.cls-6{fill:none;stroke:#27213b;stroke-linecap:round;stroke-linejoin:round;stroke-width:1.5px;}.cls-7{font-size:13.56px;font-family:CenturySchoolbook-Bold,
            Century
            Schoolbook;font-weight:700;}.cls-16,.cls-7,.cls-8{fill:#27213b;}.cls-8{font-size:26px;font-family:ScriptMTBold,
            Script MT
            Bold;}.cls-9{fill:#ea4856;}.cls-10{fill:#fff;}.cls-11{fill:#869ab6;}.cls-12{fill:#ea9836;}.cls-13{fill:#fecc68;}.cls-14{fill:#bf3340;}.cls-15{fill:#d15b36;}
        </style>
    </defs>
    <g class="cls-1">
        <g id="Слой_2" data-name="Слой 2">
            <g id="OBJECTS">
                <path class="cls-2"
                      d="M158.82,124.1H32.31c-9.4,0-17.06-8.49-17.06-18.92v-2.44C5.72,98.71.75,80.06.75,62.43s5-36.28,14.5-40.32V19.68C15.25,9.24,22.91.75,32.31.75H158.82c9.41,0,17.06,8.49,17.06,18.93v2.43c9.53,4,14.5,22.68,14.5,40.32s-5,36.28-14.5,40.31v2.44C175.88,115.61,168.23,124.1,158.82,124.1Z"/>
                <path class="cls-3"
                      d="M186.4,62.43c0-20.06-6.32-36.47-14.31-37.76V20.24c0-8.81-6.31-15.95-14.11-15.95H33.15c-7.79,0-14.11,7.14-14.11,16v4.43C11.05,26,4.73,42.37,4.73,62.43S11.05,98.89,19,100.18v4.43c0,8.81,6.32,16,14.11,16H158c7.8,0,14.11-7.14,14.11-16v-4.43C180.08,98.89,186.4,82.48,186.4,62.43Z"/>
                <path class="cls-3"
                      d="M186.4,62.43c0-20.06-6.32-36.47-14.31-37.76V20.24c0-8.81-6.31-15.95-14.11-15.95H33.15c-7.79,0-14.11,7.14-14.11,16v4.43C11.05,26,4.73,42.37,4.73,62.43S11.05,98.89,19,100.18v4.43c0,8.81,6.32,16,14.11,16H158c7.8,0,14.11-7.14,14.11-16v-4.43C180.08,98.89,186.4,82.48,186.4,62.43Z"/>
                <path class="cls-4"
                      d="M172.09,24.67V20.24c0-8.81-6.31-15.95-14.11-15.95H142.75L101.27,120.56H158c7.8,0,14.11-7.14,14.11-16v-4.43c8-1.29,14.31-17.7,14.31-37.75S180.08,26,172.09,24.67Z"/>
                <path class="cls-5"
                      d="M141.57,82.67c0,3.73-20.46,6.75-45.7,6.75s-45.7-3-45.7-6.75,20.46-6.75,45.7-6.75S141.57,78.94,141.57,82.67Z"/>
                <path class="cls-6"
                      d="M186.4,62.43c0-20.06-6.32-36.47-14.31-37.76V20.24c0-8.81-6.31-15.95-14.11-15.95H33.15c-7.79,0-14.11,7.14-14.11,16v4.43C11.05,26,4.73,42.37,4.73,62.43S11.05,98.89,19,100.18v4.43c0,8.81,6.32,16,14.11,16H158c7.8,0,14.11-7.14,14.11-16v-4.43C180.08,98.89,186.4,82.48,186.4,62.43Z"/>
                <path class="cls-6"
                      d="M158.82,124.1H32.31c-9.4,0-17.06-8.49-17.06-18.92v-2.44C5.72,98.71.75,80.06.75,62.43s5-36.28,14.5-40.32V19.68C15.25,9.24,22.91.75,32.31.75H158.82c9.41,0,17.06,8.49,17.06,18.93v2.43c9.53,4,14.5,22.68,14.5,40.32s-5,36.28-14.5,40.31v2.44C175.88,115.61,168.23,124.1,158.82,124.1Z"/>
                <text class="cls-7" transform="translate(65.66 142.15)">EST. 2007</text>
                <text class="cls-8" transform="translate(53.24 109.06) rotate(8.66)">B</text>
                <text class="cls-8" transform="matrix(1, 0.07, -0.07, 1, 73.62, 112.02)">a</text>
                <text class="cls-8" transform="translate(87.87 113.05) rotate(0.44)">k</text>
                <text class="cls-8" transform="translate(101.07 113.08) rotate(-3.3)">e</text>
                <text class="cls-8" transform="matrix(0.99, -0.12, 0.12, 0.99, 111.2, 112.47)">l</text>
                <text class="cls-8" transform="matrix(0.98, -0.21, 0.21, 0.98, 120.58, 111.43)">y</text>
                <path class="cls-6" d="M140.26,54.34c1,2.08,3.18,6,.42,7.53"/>
                <path class="cls-9"
                      d="M59.72,54.75c3.44,3.57,4.08,8.55,1.42,11.12s-7.61,1.76-11.06-1.81S46,55.51,48.65,52.94,56.27,51.18,59.72,54.75Z"/>
                <path class="cls-9"
                      d="M71.29,54.75c-3.44-3.57-8.4-4.38-11.06-1.81a5.27,5.27,0,0,0-1,1.36l.48.45c2.91,3,3.81,7,2.41,9.77,3.42,3.17,8.05,3.81,10.59,1.35S74.74,58.32,71.29,54.75Z"/>
                <path class="cls-9"
                      d="M82.87,54.75c-3.45-3.57-8.4-4.38-11.06-1.81a5.27,5.27,0,0,0-1,1.36l.47.45c2.92,3,3.82,7,2.42,9.77,3.41,3.17,8,3.81,10.59,1.35S86.32,58.32,82.87,54.75Z"/>
                <path class="cls-9"
                      d="M94.45,54.75c-3.45-3.57-8.4-4.38-11.06-1.81a5.27,5.27,0,0,0-1,1.36l.47.45c2.92,3,3.82,7,2.42,9.77,3.41,3.17,8,3.81,10.59,1.35S97.9,58.32,94.45,54.75Z"/>
                <path class="cls-9"
                      d="M106,54.75c-3.45-3.57-8.4-4.38-11.06-1.81a5,5,0,0,0-1,1.36l.47.45c2.92,3,3.81,7,2.42,9.77,3.41,3.17,8,3.81,10.59,1.35S109.48,58.32,106,54.75Z"/>
                <path class="cls-9"
                      d="M117.61,54.75c-3.45-3.57-8.4-4.38-11.06-1.81a4.84,4.84,0,0,0-1,1.36l.47.45c2.92,3,3.81,7,2.41,9.77,3.42,3.17,8,3.81,10.59,1.35S121.06,58.32,117.61,54.75Z"/>
                <path class="cls-9"
                      d="M129.19,54.75c-3.45-3.57-8.4-4.38-11.06-1.81a5.08,5.08,0,0,0-1,1.36l.48.45c2.91,3,3.81,7,2.41,9.77,3.42,3.17,8,3.81,10.59,1.35S132.63,58.32,129.19,54.75Z"/>
                <path class="cls-9"
                      d="M140.77,54.75c-3.45-3.57-8.41-4.38-11.07-1.81a5.27,5.27,0,0,0-1,1.36l.48.45c2.91,3,3.81,7,2.41,9.77,3.42,3.17,8.05,3.81,10.59,1.35S144.21,58.32,140.77,54.75Z"/>
                <path class="cls-10"
                      d="M140.77,54.75c-3.45-3.57-8.41-4.38-11.07-1.81a5.27,5.27,0,0,0-1,1.36l.48.45c-3.45-3.57-8.4-4.38-11.06-1.81a5.08,5.08,0,0,0-1,1.36l.48.45c-3.45-3.57-8.4-4.38-11.06-1.81a4.84,4.84,0,0,0-1,1.36l.47.45c-3.45-3.57-8.4-4.38-11.06-1.81a5,5,0,0,0-1,1.36l.47.45c-3.45-3.57-8.4-4.38-11.06-1.81a5.27,5.27,0,0,0-1,1.36c-3.42-3.17-8.05-3.81-10.59-1.36a5.27,5.27,0,0,0-1,1.36l.47.45c-3.44-3.57-8.4-4.38-11.06-1.81a5.27,5.27,0,0,0-1,1.36l.48.45c-3.45-3.57-8.4-4.38-11.07-1.81a6.1,6.1,0,0,0-1.5,5.6,5.38,5.38,0,0,1,1.5-2.84c2.57-2.47,7.26-1.8,10.68,1.45h0l-.09-.09a5.27,5.27,0,0,1,1-1.36c2.56-2.46,7.22-1.81,10.64,1.41h0l-.05,0a5.27,5.27,0,0,1,1-1.36c2.54-2.45,7.17-1.82,10.59,1.36a5.27,5.27,0,0,1,1-1.36c2.52-2.43,7.1-1.83,10.5,1.28a3.22,3.22,0,0,1,.28-.24,5.34,5.34,0,0,1,.8-1c2.54-2.45,7.19-1.81,10.61,1.38h0l0,0a4.84,4.84,0,0,1,1-1.36c2.56-2.47,7.25-1.8,10.67,1.45h0a.76.76,0,0,0-.09-.09,5.08,5.08,0,0,1,1-1.36c2.54-2.46,7.19-1.81,10.61,1.38h0l0,0a5.27,5.27,0,0,1,1-1.36c2.66-2.57,7.62-1.76,11.07,1.81A11,11,0,0,1,143.7,63,9.71,9.71,0,0,0,140.77,54.75Z"/>
                <path class="cls-11"
                      d="M131.6,64.52h0a5.16,5.16,0,0,1-1,1.35c-2.54,2.46-7.17,1.82-10.59-1.35h0a5.16,5.16,0,0,1-1,1.35c-2.54,2.46-7.17,1.82-10.59-1.35h0a5.4,5.4,0,0,1-1,1.35c-2.55,2.46-7.18,1.82-10.59-1.35h0a5.4,5.4,0,0,1-1,1.35c-2.55,2.46-7.18,1.82-10.59-1.35h0a5.4,5.4,0,0,1-1,1.35c-2.55,2.46-7.18,1.82-10.59-1.35h0a5.4,5.4,0,0,1-1,1.35c-2.54,2.46-7.17,1.82-10.59-1.35h0a5.16,5.16,0,0,1-1,1.35c-2.36,2.28-6.51,1.9-9.83-.7.53,5.5,1.75,13,4.55,16,3,3.17,72.68,2.32,78.49,1.16,3.68-.74,4.68-9,4.92-15A9.52,9.52,0,0,1,131.6,64.52Z"/>
                <path class="cls-10"
                      d="M136.65,79.71c-5.81,1.17-75.5,2-78.49-1.16-2.13-2.26-3.35-7.15-4-11.78a10.9,10.9,0,0,1-2.81-1.6c.53,5.5,1.75,13,4.55,16,3,3.17,72.68,2.32,78.49,1.16,1.2-.24,2.11-1.28,2.8-2.78A2.11,2.11,0,0,1,136.65,79.71Z"/>
                <path class="cls-9"
                      d="M95.83,22c-.53,1.16,0,2.47-1.09,3.7-1.35,1.59-3.92.44-5.45,2.61-2.86,4.09.65,5.24,4.2,5,3.14-.2,5.69-1.49,5.39-5-.18-2.14-.87-5-3-6.32"/>
                <path class="cls-12"
                      d="M98.87,29.51c-.32,2.62-2.62,3.63-5.38,3.81-3.1.2-6.19-.65-5-3.61-19,1.69-34.2,10.61-37.89,22.06,2.73-.92,6.38.17,9.1,3l-.48-.45a5.27,5.27,0,0,1,1-1.36c2.66-2.57,7.62-1.76,11.06,1.81l-.47-.45a5.27,5.27,0,0,1,1-1.36c2.66-2.57,7.61-1.76,11.06,1.81l-.47-.45a5.27,5.27,0,0,1,1-1.36c2.66-2.57,7.61-1.76,11.06,1.81L94,54.3a5,5,0,0,1,1-1.36c2.66-2.57,7.61-1.76,11.06,1.81l-.47-.45a4.84,4.84,0,0,1,1-1.36c2.66-2.57,7.61-1.76,11.06,1.81l-.48-.45a5.08,5.08,0,0,1,1-1.36c2.66-2.57,7.61-1.76,11.06,1.81l-.48-.45a5.27,5.27,0,0,1,1-1.36c2.52-2.43,7.09-1.83,10.5,1.27C137.91,41,120.55,30.6,98.87,29.51Z"/>
                <path class="cls-13"
                      d="M124,45.13s7.3,4.31,6.38,7.74-11.78-5.95-10.62-8.43C120.55,42.83,124,45.13,124,45.13Z"/>
                <path class="cls-13" d="M116.09,40a1.63,1.63,0,1,0,2.2.73A1.64,1.64,0,0,0,116.09,40Z"/>
                <path class="cls-10"
                      d="M75.71,41.35c-3.21.95-6.24.25-6.77-1.55s1.64-4,4.85-5,6.24-.25,6.77,1.55S78.92,40.41,75.71,41.35Z"/>
                <path class="cls-13"
                      d="M133.28,42.19c-7.43-7.08-20-11.95-34.41-12.68-.32,2.62-2.62,3.63-5.38,3.81-3.1.2-6.19-.65-5-3.61-11.3,1-21.24,4.56-28.23,9.68,2.28,1.32,4.69,1.72,8.83-.81,3.53-2.15,11.41-4.78,15.64-4.14,5.5.84,2.67,3.91,1.09,6.9-.79,1.5-2,4.69.52,5.07,2.29.35,3.68-2.94,4.77-4.38,1.28-1.68,3.5-4,5.59-4.6,2.92-.91,3.69,1.37,4.83,3.62,1.7,3.38,5.28,8.44,9,6.73,3-1.38.31-5.43.45-7.82.22-3.87,5.94-2.65,7.83-1.61C125.47,42,130.07,46.4,133.28,42.19Z"/>
                <path class="cls-10"
                      d="M96.47,22.47a4.21,4.21,0,0,0-.64-.47c-.53,1.16,0,2.47-1.09,3.7-1.35,1.59-3.92.44-5.45,2.61-1.1,1.58-1.25,2.71-.83,3.5.51-1.59,1.9-2.68,5.5-3.58,4-1,2.6-5.44,2.6-5.44Z"/>
                <path class="cls-14"
                      d="M47.57,58.75c-.09-.23,2.91,5.37,7.82,4.75S62,57.83,62,57.83s3.37,8.13-4.22,9.28S48.64,61.51,47.57,58.75Z"/>
                <path class="cls-14"
                      d="M73.64,57.83S72,62.89,67,63.5a6.26,6.26,0,0,1-3.91-.82,3.41,3.41,0,0,1-1,2.06c1.48,1.7,3.69,2.91,7.25,2.37C77,66,73.64,57.83,73.64,57.83Z"/>
                <path class="cls-14"
                      d="M85.29,57.83S83.6,62.89,78.7,63.5a6.37,6.37,0,0,1-4.15-1,3.53,3.53,0,0,1-.71,1.68c0,.08-.07.16-.12.24l-.06.08c1.47,1.81,3.72,3.13,7.41,2.57C88.67,66,85.29,57.83,85.29,57.83Z"/>
                <path class="cls-14"
                      d="M97,57.83s-1.69,5.06-6.6,5.67A6.36,6.36,0,0,1,86,62.38a6.17,6.17,0,0,1-.52,2.32c1.47,1.72,3.7,3,7.28,2.41C100.32,66,97,57.83,97,57.83Z"/>
                <path class="cls-14"
                      d="M108.6,57.83s-1.69,5.06-6.59,5.67a6.29,6.29,0,0,1-4.11-.94c0,.15-.05.3-.09.44A4,4,0,0,1,97,64.54c1.47,1.81,3.72,3.13,7.41,2.57C112,66,108.6,57.83,108.6,57.83Z"/>
                <path class="cls-14"
                      d="M120.26,57.83s-1.69,5.06-6.6,5.67a6.28,6.28,0,0,1-4.25-1v.16a5.37,5.37,0,0,1-.6,2.14c1.48,1.7,3.69,2.88,7.23,2.35C123.63,66,120.26,57.83,120.26,57.83Z"/>
                <path class="cls-14"
                      d="M131.91,57.83s-1.69,5.06-6.59,5.67a6.59,6.59,0,0,1-4.79-1.39,3.91,3.91,0,0,1-.38,2.28c1.47,1.89,3.75,3.29,7.54,2.72C135.29,66,131.91,57.83,131.91,57.83Z"/>
                <path class="cls-14"
                      d="M143.57,57.83s-1.69,5.06-6.6,5.67a6.73,6.73,0,0,1-5.13-1.66c-.05.46-.1.92-.18,1.38a4.74,4.74,0,0,1-.18.72c1.45,2.11,3.77,3.79,7.87,3.17C146.94,66,143.57,57.83,143.57,57.83Z"/>
                <path class="cls-10"
                      d="M49.79,52.62S48.41,61.36,59,67.34c0,0-5.82,2.37-9.5-3.84S46.57,54.84,49.79,52.62Z"/>
                <path class="cls-10"
                      d="M90.83,33.19c-1.9-.37-3.17-1.41-2.32-3.48-19,1.69-34.2,10.61-37.89,22.06a6.61,6.61,0,0,1,2.49-.29C56.45,46.06,62.43,40.65,73,37.2A97.14,97.14,0,0,1,90.83,33.19Z"/>
                <path class="cls-10"
                      d="M121.3,34.52a64.83,64.83,0,0,0-22.43-5,3.8,3.8,0,0,1-2.41,3.15c15-.92,24.18,2.47,24.18,2.47Z"/>
                <path class="cls-6"
                      d="M59.72,54.75c3.44,3.57,4.08,8.55,1.42,11.12s-7.61,1.76-11.06-1.81S46,55.51,48.65,52.94,56.27,51.18,59.72,54.75Z"/>
                <path class="cls-6"
                      d="M71.29,54.75c-3.44-3.57-8.4-4.38-11.06-1.81a5.27,5.27,0,0,0-1,1.36l.48.45c2.91,3,3.81,7,2.41,9.77,3.42,3.17,8.05,3.81,10.59,1.35S74.74,58.32,71.29,54.75Z"/>
                <path class="cls-6"
                      d="M82.87,54.75c-3.45-3.57-8.4-4.38-11.06-1.81a5.27,5.27,0,0,0-1,1.36l.47.45c2.92,3,3.82,7,2.42,9.77,3.41,3.17,8,3.81,10.59,1.35S86.32,58.32,82.87,54.75Z"/>
                <path class="cls-6"
                      d="M94.45,54.75c-3.45-3.57-8.4-4.38-11.06-1.81a5.27,5.27,0,0,0-1,1.36l.47.45c2.92,3,3.82,7,2.42,9.77,3.41,3.17,8,3.81,10.59,1.35S97.9,58.32,94.45,54.75Z"/>
                <path class="cls-6"
                      d="M106,54.75c-3.45-3.57-8.4-4.38-11.06-1.81a5,5,0,0,0-1,1.36l.47.45c2.92,3,3.81,7,2.42,9.77,3.41,3.17,8,3.81,10.59,1.35S109.48,58.32,106,54.75Z"/>
                <path class="cls-6"
                      d="M117.61,54.75c-3.45-3.57-8.4-4.38-11.06-1.81a4.84,4.84,0,0,0-1,1.36l.47.45c2.92,3,3.81,7,2.41,9.77,3.42,3.17,8,3.81,10.59,1.35S121.06,58.32,117.61,54.75Z"/>
                <path class="cls-6"
                      d="M129.19,54.75c-3.45-3.57-8.4-4.38-11.06-1.81a5.08,5.08,0,0,0-1,1.36l.48.45c2.91,3,3.81,7,2.41,9.77,3.42,3.17,8,3.81,10.59,1.35S132.63,58.32,129.19,54.75Z"/>
                <path class="cls-6"
                      d="M140.77,54.75c-3.45-3.57-8.41-4.38-11.07-1.81a5.27,5.27,0,0,0-1,1.36l.48.45c2.91,3,3.81,7,2.41,9.77,3.42,3.17,8.05,3.81,10.59,1.35S144.21,58.32,140.77,54.75Z"/>
                <path class="cls-6"
                      d="M131.6,64.52h0a5.16,5.16,0,0,1-1,1.35c-2.54,2.46-7.17,1.82-10.59-1.35h0a5.16,5.16,0,0,1-1,1.35c-2.54,2.46-7.17,1.82-10.59-1.35h0a5.4,5.4,0,0,1-1,1.35c-2.55,2.46-7.18,1.82-10.59-1.35h0a5.4,5.4,0,0,1-1,1.35c-2.55,2.46-7.18,1.82-10.59-1.35h0a5.4,5.4,0,0,1-1,1.35c-2.55,2.46-7.18,1.82-10.59-1.35h0a5.4,5.4,0,0,1-1,1.35c-2.54,2.46-7.17,1.82-10.59-1.35h0a5.16,5.16,0,0,1-1,1.35c-2.36,2.28-6.51,1.9-9.83-.7.53,5.5,1.75,13,4.55,16,3,3.17,72.68,2.32,78.49,1.16,3.68-.74,4.68-9,4.92-15A9.52,9.52,0,0,1,131.6,64.52Z"/>
                <path class="cls-6"
                      d="M95.83,22c-.53,1.16,0,2.47-1.09,3.7-1.35,1.59-3.92.44-5.45,2.61-2.86,4.09.65,5.24,4.2,5,3.14-.2,5.69-1.49,5.39-5-.18-2.14-.87-5-3-6.32"/>
                <path class="cls-6"
                      d="M98.87,29.51c-.32,2.62-2.62,3.63-5.38,3.81-3.1.2-6.19-.65-5-3.61-19,1.69-34.2,10.61-37.89,22.06,2.73-.92,6.38.17,9.1,3l-.48-.45a5.27,5.27,0,0,1,1-1.36c2.66-2.57,7.62-1.76,11.06,1.81l-.47-.45a5.27,5.27,0,0,1,1-1.36c2.66-2.57,7.61-1.76,11.06,1.81l-.47-.45a5.27,5.27,0,0,1,1-1.36c2.66-2.57,7.61-1.76,11.06,1.81L94,54.3a5,5,0,0,1,1-1.36c2.66-2.57,7.61-1.76,11.06,1.81l-.47-.45a4.84,4.84,0,0,1,1-1.36c2.66-2.57,7.61-1.76,11.06,1.81l-.48-.45a5.08,5.08,0,0,1,1-1.36c2.66-2.57,7.61-1.76,11.06,1.81l-.48-.45a5.27,5.27,0,0,1,1-1.36c2.52-2.43,7.09-1.83,10.5,1.27C137.91,41,120.55,30.6,98.87,29.51Z"/>
                <path class="cls-6" d="M58.56,58.94c1,2.08,3.19,6,.42,7.53"/>
                <path class="cls-6" d="M52,51.55c-4.78-.7-.47,8,.42,9.07"/>
                <path class="cls-6" d="M70.83,58.94c1,2.08,3.18,6,.42,7.53"/>
                <path class="cls-6" d="M82.4,58.94c1,2.08,3.19,6,.42,7.53"/>
                <path class="cls-6" d="M94,58.94c1,2.08,3.19,6,.42,7.53"/>
                <path class="cls-6" d="M105.54,58.94c1,2.08,3.19,6,.42,7.53"/>
                <path class="cls-6" d="M117.12,58.94c1,2.08,3.18,6,.42,7.53"/>
                <path class="cls-6" d="M128.69,58.94c1,2.08,3.18,6,.42,7.53"/>
                <path class="cls-6" d="M119.91,38.45s9.9,4.88,14.22,12.54"/>
                <path class="cls-6" d="M122.14,43.88s3.62,1.4,8.36,7.67"/>
                <path class="cls-6" d="M59.29,46.05S66.43,37.88,82,34.6"/>
                <path class="cls-6" d="M136.22,67.31s-.7,8.92-2.93,10.73-6.27,1.39-19.66,1.53"/>
                <path class="cls-6" d="M124,76.5c-1.18,0-2.35-.06-3.53-.13"/>
                <path class="cls-6" d="M133.71,66.19c-.14,3.07-.14,10.6-5.31,10.16"/>
                <path class="cls-15"
                      d="M31.62,72.64a14.24,14.24,0,0,0,1.44.2c-.15-.55-.28-1.11-.41-1.67a.59.59,0,0,1-.32-.51,10.25,10.25,0,0,0-2.46-2.28,16.84,16.84,0,0,1-2.28-.74,3.57,3.57,0,0,0-1.66.41c-1,.54-.86,1-.83,1.1.21.87,1.91,2,4.06,2.8A5.83,5.83,0,0,1,31.62,72.64Z"/>
                <path class="cls-13"
                      d="M25.82,43.19A5.64,5.64,0,0,1,28,44.38a12.89,12.89,0,0,0,1.31.48V43.08a.63.63,0,0,1-.15-.53c-.89-1.9-2.73-4.7-5.57-3.87-1.09.34-1.08.81-1.08,1C22.57,40.54,23.94,42,25.82,43.19Z"/>
                <path class="cls-13"
                      d="M30.44,67.09a13,13,0,0,0,1.36.25c-.12-.57-.24-1.13-.34-1.7a.54.54,0,0,1-.3-.53,10.31,10.31,0,0,0-2.34-2.38,18.08,18.08,0,0,1-2.23-.82,3.47,3.47,0,0,0-1.68.34c-1,.5-.91.93-.88,1.07.17.87,1.77,2.06,3.84,2.93A5.73,5.73,0,0,1,30.44,67.09Z"/>
                <path class="cls-15"
                      d="M28.21,50.1a13,13,0,0,0,1.34.43c0-.59-.05-1.17-.07-1.76a.62.62,0,0,1-.2-.54,9.94,9.94,0,0,0-2-2.66,18.45,18.45,0,0,1-2.06-1.09,3.32,3.32,0,0,0-1.72.13c-1.07.38-1,.84-1,1,.06.89,1.51,2.28,3.44,3.41A5.57,5.57,0,0,1,28.21,50.1Z"/>
                <path class="cls-13"
                      d="M28.65,55.79c.47.15.93.28,1.4.38q-.11-.87-.18-1.74a.61.61,0,0,1-.23-.54,9.86,9.86,0,0,0-2.1-2.57,16.53,16.53,0,0,1-2.13-1,3.36,3.36,0,0,0-1.71.2c-1,.42-1,.87-1,1,.09.89,1.6,2.22,3.6,3.26A5.73,5.73,0,0,1,28.65,55.79Z"/>
                <path class="cls-13"
                      d="M33.22,78.16c.45.06.9.11,1.34.13-.16-.55-.31-1.1-.47-1.65a.58.58,0,0,1-.35-.5,10.1,10.1,0,0,0-2.61-2.21A17.75,17.75,0,0,1,29,73.32a3.48,3.48,0,0,0-1.73.49c-.92.56-.81,1-.77,1.11.25.86,2,1.92,4.13,2.62A5.82,5.82,0,0,1,33.22,78.16Z"/>
                <path class="cls-15"
                      d="M42.39,76.45c-.12-.38-.79-.43-1.3-.43a3.54,3.54,0,0,0-1.61.38c-.5.52-1,1-1.54,1.48a8.38,8.38,0,0,0-1.09,3c.25.75.49,1.51.76,2.26C40.42,80.8,42.77,77.56,42.39,76.45Z"/>
                <path class="cls-15"
                      d="M35.43,81.56a10.39,10.39,0,0,0-2.72-2.1,19.63,19.63,0,0,1-2.21-.52,3.45,3.45,0,0,0-1.71.55c-.89.6-.76,1-.71,1.14.43,1.33,4.55,3,8.24,3-.19-.54-.36-1.09-.54-1.64A.55.55,0,0,1,35.43,81.56Z"/>
                <path class="cls-15"
                      d="M30.83,48c0,.77,0,1.54.09,2.32.39-.19.77-.39,1.15-.59a5.49,5.49,0,0,1,2.19-1.36c1.86-1.3,3.18-2.66,3.12-3.43,0-.36-.63-.57-1-.66a3.38,3.38,0,0,0-1.75-.05c-.63.38-1.27.74-1.91,1.06A8.93,8.93,0,0,0,30.83,48Z"/>
                <path class="cls-15"
                      d="M36.85,65.84c-.56.49-1.14,1-1.72,1.38-.12.16-.23.33-.34.51a8.55,8.55,0,0,0-1,2.38c.17.76.36,1.52.56,2.29.35-.25.7-.51,1-.78A5.39,5.39,0,0,1,37.22,70c1.62-1.59,2.69-3.15,2.5-3.9-.09-.37-.75-.47-1.13-.51A3.71,3.71,0,0,0,36.85,65.84Z"/>
                <path class="cls-13"
                      d="M30.72,44.71q.6-.26,1.17-.54a5.49,5.49,0,0,1,2.26-1.27c1.93-1.23,3.31-2.55,3.29-3.32,0-.36-.61-.59-1-.7-3.1-1-5.14,2.35-5.75,3.54C30.72,43.18,30.71,43.94,30.72,44.71Z"/>
                <path class="cls-13"
                      d="M36.42,72.57a8.63,8.63,0,0,0-1.22,3c.22.77.43,1.53.66,2.29.35-.27.7-.56,1-.85a5.4,5.4,0,0,1,1.7-1.64c1.55-1.66,2.55-3.27,2.33-4-.1-.37-.77-.45-1.16-.46a3.43,3.43,0,0,0-1.74.31C37.51,71.65,37,72.13,36.42,72.57Z"/>
                <path class="cls-13"
                      d="M32.66,64.66c.14.76.31,1.52.47,2.28.35-.23.69-.46,1-.71a5.31,5.31,0,0,1,2-1.6c1.65-1.51,2.77-3,2.62-3.75-.07-.36-.72-.5-1.1-.55a3.59,3.59,0,0,0-1.76.17c-.57.46-1.16.89-1.75,1.29A8.67,8.67,0,0,0,32.66,64.66Z"/>
                <path class="cls-15"
                      d="M31.79,59.13c.11.77.23,1.53.35,2.3.37-.22.73-.44,1.09-.68a5.53,5.53,0,0,1,2-1.46c1.77-1.45,3-2.93,2.86-3.69-.06-.37-.7-.53-1.07-.59a3.53,3.53,0,0,0-1.76.1c-.59.43-1.2.84-1.81,1.21A9,9,0,0,0,31.79,59.13Z"/>
                <path class="cls-13"
                      d="M31.18,53.57c.07.77.14,1.55.22,2.32.37-.2.74-.41,1.1-.63a5.53,5.53,0,0,1,2.12-1.43c1.8-1.38,3.06-2.79,3-3.55,0-.36-.67-.54-1-.62a3.48,3.48,0,0,0-1.76,0c-.6.41-1.23.79-1.85,1.14A8.76,8.76,0,0,0,31.18,53.57Z"/>
                <path class="cls-15"
                      d="M29.37,61.45a12.29,12.29,0,0,0,1.43.33c-.09-.58-.2-1.16-.28-1.74a.57.57,0,0,1-.25-.51A10.29,10.29,0,0,0,28,57a17.16,17.16,0,0,1-2.17-.91,3.37,3.37,0,0,0-1.7.28c-1,.46-1,.9-.93,1,.13.89,1.71,2.15,3.76,3.11A5.8,5.8,0,0,1,29.37,61.45Z"/>
                <path class="cls-10"
                      d="M30.21,42.17s3.3-3,4.45-2.22S34,43.63,34,43.63s1.61.46,1.61,1.76-2.15,3.84-2.15,3.84,2.22.61,2.15,1.91-2.92,4.61-2.92,4.61,3.22-.85,3.45.3-2,5-2,5,2.38-.31,2.61.61S34.43,66,34.43,66s2.07-.69,3,.69-2,5.44-2,5.44S38,70.93,39,71.92s-2,5.45-2,5.45,3-1.38,3.6-.46-3,6.25-3,6.25,5.64-4.49,5.25-6.48S40,75.14,40,75.14s2.37-2.83,1.38-4a4.48,4.48,0,0,0-3-1.15s2.6-2.84,1.83-4.22-2.83-1.38-2.83-1.38,2.3-2.84,1.84-4S36.42,59,36.42,59s2.76-2.76,2.15-3.83-3.3-1.15-3.3-1.15,3.61-3,2.91-4.14-2.76-1.54-2.76-1.54L38,44.7a6.93,6.93,0,0,0-2.38-1.91s2.77-1.92,2.46-3.76-5.91-1.53-7.82,2.91"/>
                <path class="cls-10"
                      d="M27.16,39.14s-1.84-.63-2.53.81,2.71,4.43,2.71,4.43-3.17-.17-3.28,1.38,3.05,4.31,3.05,4.31-2.76.69-2.82,1.73,4.77,4.31,4.77,4.31-4.48.52-4.54,1.78,5.17,4.37,5.17,4.37-3.16-.63-3.73,1,4.88,4.43,4.88,4.43-3.73.17-4,1.38,5.29,4.14,5.29,4.14-3.05.17-3.4,1.61,4.72,3.74,4.72,3.74-3.68.92-3.8,1.89,4.6,3.4,4.6,3.4-6.9-1.38-6.78-3,2.07-3,2.07-3-4-1.56-3.8-3.28S28,72.33,28,72.33s-4-2.25-3.68-3.51,2.41-2.3,2.41-2.3-3.45-2-3.51-3.57,2.53-2.3,2.53-2.3-3.5-.92-3-3.85S25.32,55,25.32,55,22,52.49,22.45,50.65a1.92,1.92,0,0,1,2.18-1.56S21.87,46.85,22,45.41s2.59-2,2.59-2-2.93-1.78-2.76-4.2S25.73,38.05,27.16,39.14Z"/>
                <path class="cls-16"
                      d="M43.7,76c-.21-.62-.82-1.36-2.48-1.36l-.27,0c1-1.38,1.61-2.73,1.31-3.74-.19-.62-.76-1.38-2.42-1.45a2.26,2.26,0,0,0-.26,0c1.08-1.34,1.74-2.67,1.48-3.69-.15-.63-.69-1.41-2.34-1.55h-.25c1.14-1.29,1.85-2.6,1.64-3.63C40,60,39.48,59.17,37.84,59a1.94,1.94,0,0,0-.24,0c1.2-1.25,2-2.53,1.81-3.57-.1-.64-.57-1.45-2.19-1.73l-.23,0c1.26-1.2,2.1-2.45,2-3.5-.08-.64-.5-1.47-2.1-1.81l-.23,0c1.31-1.16,2.21-2.38,2.13-3.43,0-.64-.44-1.49-2-1.9l-.22,0c1.37-1.11,2.33-2.3,2.29-3.37,0-.64-.37-1.5-1.92-2a5.22,5.22,0,0,0-5.58,1.66c1.42-2.56,2.94-5.08,4.54-7.51A.69.69,0,0,0,34.7,31c-1.34,2-2.61,4.14-3.83,6.27a115.69,115.69,0,0,1,1.84-15.74.69.69,0,1,0-1.36-.26A119.73,119.73,0,0,0,29.45,38c-1.28-2.68-2.47-5.43-3.54-8.21a.69.69,0,0,0-.89-.4.7.7,0,0,0-.39.9c1.11,2.9,2.36,5.77,3.7,8.56a5,5,0,0,0-5.1-1.48c-1.84.57-2.08,1.7-2.06,2.32,0,1.13.95,2.38,2.29,3.52a2.85,2.85,0,0,0-.39.11c-1.8.64-2,1.77-1.95,2.38.07,1.13,1.06,2.35,2.45,3.42l-.37.13c-1.76.71-1.91,1.84-1.85,2.45C21.48,52.81,22.52,54,24,55l-.36.13c-1.73.78-1.83,1.91-1.74,2.52.17,1.12,1.27,2.25,2.78,3.21L24.3,61c-1.68.85-1.74,2-1.62,2.58.22,1.11,1.37,2.2,2.92,3.1-.11,0-.22.09-.33.15-1.64.92-1.65,2-1.51,2.63.27,1.13,1.5,2.16,3.1,3l-.35.18c-1.59,1-1.55,2.1-1.38,2.68.31,1.12,1.6,2.1,3.24,2.85l-.34.19c-1.54,1-1.45,2.15-1.26,2.72.79,2.42,6.17,4,9.72,4h.35a118.83,118.83,0,0,0,5.21,12.06.69.69,0,0,0,1.24-.62,114.89,114.89,0,0,1-5.17-12C40.9,82.29,44.45,78.21,43.7,76Zm-2.77-4.69c.22.74-.78,2.35-2.33,4A5.4,5.4,0,0,0,36.9,77c-.34.29-.69.58-1,.85-.23-.76-.44-1.52-.66-2.29a8.63,8.63,0,0,1,1.22-3c.55-.44,1.09-.92,1.61-1.41a3.43,3.43,0,0,1,1.74-.31C40.16,70.86,40.83,70.94,40.93,71.31Zm-1.21-5.19c.19.75-.88,2.31-2.5,3.9a5.39,5.39,0,0,0-1.82,1.6c-.33.27-.68.53-1,.78-.2-.77-.39-1.53-.56-2.29a8.55,8.55,0,0,1,1-2.38c.11-.18.22-.35.34-.51.58-.43,1.16-.89,1.72-1.38a3.71,3.71,0,0,1,1.74-.23C39,65.65,39.63,65.75,39.72,66.12Zm-2.06-5.79c.38.05,1,.19,1.1.55.15.75-1,2.24-2.62,3.75a5.31,5.31,0,0,0-2,1.6c-.34.25-.68.48-1,.71-.16-.76-.33-1.52-.47-2.28a8.67,8.67,0,0,1,1.49-2.87c.59-.4,1.18-.83,1.75-1.29A3.59,3.59,0,0,1,37.66,60.33ZM37,55c.37.06,1,.22,1.07.59.12.76-1.09,2.24-2.86,3.69a5.53,5.53,0,0,0-2,1.46c-.36.24-.72.46-1.09.68-.12-.77-.24-1.53-.35-2.3a9,9,0,0,1,1.62-2.81c.61-.37,1.22-.78,1.81-1.21A3.53,3.53,0,0,1,37,55Zm-.43-5.35c.37.08,1,.26,1,.62.09.76-1.17,2.17-3,3.55a5.53,5.53,0,0,0-2.12,1.43c-.36.22-.73.43-1.1.63-.08-.77-.15-1.55-.22-2.32a8.76,8.76,0,0,1,1.76-2.75c.62-.35,1.25-.73,1.85-1.14A3.48,3.48,0,0,1,36.55,49.66Zm-.17-5.38c.37.09,1,.3,1,.66.06.77-1.26,2.13-3.12,3.43a5.49,5.49,0,0,0-2.19,1.36c-.38.2-.76.4-1.15.59-.05-.78-.06-1.55-.09-2.32a8.93,8.93,0,0,1,1.89-2.71c.64-.32,1.28-.68,1.91-1.06A3.38,3.38,0,0,1,36.38,44.28Zm.09-5.4c.36.11,1,.34,1,.7,0,.77-1.36,2.09-3.29,3.32a5.49,5.49,0,0,0-2.26,1.27q-.57.28-1.17.54c0-.77,0-1.53,0-2.29C31.33,41.23,33.37,37.86,36.47,38.88Zm-13.93.76c0-.15,0-.62,1.08-1,2.84-.83,4.68,2,5.57,3.87a.63.63,0,0,0,.15.53v1.78A12.89,12.89,0,0,1,28,44.38a5.64,5.64,0,0,0-2.21-1.19C23.94,42,22.57,40.54,22.54,39.64Zm-.05,6c0-.15,0-.61,1-1a3.32,3.32,0,0,1,1.72-.13,18.45,18.45,0,0,0,2.06,1.09,9.94,9.94,0,0,1,2,2.66.62.62,0,0,0,.2.54c0,.59,0,1.17.07,1.76a13,13,0,0,1-1.34-.43A5.57,5.57,0,0,0,25.93,49C24,47.88,22.55,46.49,22.49,45.6Zm.24,5.94c0-.15-.07-.6,1-1a3.36,3.36,0,0,1,1.71-.2,16.53,16.53,0,0,0,2.13,1,9.86,9.86,0,0,1,2.1,2.57.61.61,0,0,0,.23.54q.07.87.18,1.74c-.47-.1-.93-.23-1.4-.38a5.73,5.73,0,0,0-2.32-1C24.33,53.76,22.82,52.43,22.73,51.54Zm.51,5.91c0-.14-.09-.58.93-1a3.37,3.37,0,0,1,1.7-.28A17.16,17.16,0,0,0,28,57a10.29,10.29,0,0,1,2.23,2.49.57.57,0,0,0,.25.51c.08.58.19,1.16.28,1.74a12.29,12.29,0,0,1-1.43-.33A5.8,5.8,0,0,0,27,60.56C25,59.6,23.37,58.34,23.24,57.45ZM24,63.32c0-.14-.11-.57.88-1.07a3.47,3.47,0,0,1,1.68-.34,18.08,18.08,0,0,0,2.23.82,10.31,10.31,0,0,1,2.34,2.38.54.54,0,0,0,.3.53c.1.57.22,1.13.34,1.7a13,13,0,0,1-1.36-.25,5.73,5.73,0,0,0-2.57-.84C25.8,65.38,24.2,64.19,24,63.32Zm1.07,5.83c0-.14-.13-.56.83-1.1a3.57,3.57,0,0,1,1.66-.41,16.84,16.84,0,0,0,2.28.74,10.25,10.25,0,0,1,2.46,2.28.59.59,0,0,0,.32.51c.13.56.26,1.12.41,1.67a14.24,14.24,0,0,1-1.44-.2A5.83,5.83,0,0,0,29.16,72C27,71.16,25.31,70,25.1,69.15Zm1.35,5.77c0-.13-.15-.55.77-1.11A3.48,3.48,0,0,1,29,73.32a17.75,17.75,0,0,0,2.18.61,10.1,10.1,0,0,1,2.61,2.21.58.58,0,0,0,.35.5c.16.55.31,1.1.47,1.65-.44,0-.89-.07-1.34-.13a5.82,5.82,0,0,0-2.64-.62C28.42,76.84,26.7,75.78,26.45,74.92Zm1.63,5.71c0-.13-.18-.54.71-1.14a3.45,3.45,0,0,1,1.71-.55,19.63,19.63,0,0,0,2.21.52,10.39,10.39,0,0,1,2.72,2.1.55.55,0,0,0,.35.47c.18.55.35,1.1.54,1.64C32.63,83.64,28.51,82,28.08,80.63Zm9.53,2.53c-.27-.75-.51-1.51-.76-2.26a8.38,8.38,0,0,1,1.09-3c.52-.47,1-1,1.54-1.48A3.54,3.54,0,0,1,41.09,76c.51,0,1.18,0,1.3.43C42.77,77.56,40.42,80.8,37.61,83.16Z"/>
                <path class="cls-15"
                      d="M160.85,72.64a14,14,0,0,1-1.43.2c.14-.55.27-1.11.41-1.67a.61.61,0,0,0,.32-.51,10.38,10.38,0,0,1,2.45-2.28,17,17,0,0,0,2.29-.74,3.53,3.53,0,0,1,1.65.41c1,.54.86,1,.83,1.1-.21.87-1.91,2-4.05,2.8A5.83,5.83,0,0,0,160.85,72.64Z"/>
                <path class="cls-13"
                      d="M166.66,43.19a5.61,5.61,0,0,0-2.22,1.19,12.89,12.89,0,0,1-1.31.48c0-.59,0-1.19,0-1.78a.63.63,0,0,0,.15-.53c.89-1.9,2.73-4.7,5.57-3.87,1.09.34,1.08.81,1.08,1C169.9,40.54,168.53,42,166.66,43.19Z"/>
                <path class="cls-13"
                      d="M162,67.09a12.51,12.51,0,0,1-1.36.25c.12-.57.24-1.13.35-1.7a.55.55,0,0,0,.3-.53,10.06,10.06,0,0,1,2.33-2.38,17.5,17.5,0,0,0,2.23-.82,3.53,3.53,0,0,1,1.69.34c1,.5.9.93.87,1.07-.17.87-1.77,2.06-3.84,2.93A5.81,5.81,0,0,0,162,67.09Z"/>
                <path class="cls-15"
                      d="M164.27,50.1a14.05,14.05,0,0,1-1.35.43c0-.59.05-1.17.08-1.76a.64.64,0,0,0,.19-.54,9.94,9.94,0,0,1,2-2.66,18.58,18.58,0,0,0,2.07-1.09,3.29,3.29,0,0,1,1.71.13c1.07.38,1,.84,1,1-.06.89-1.5,2.28-3.44,3.41A5.59,5.59,0,0,0,164.27,50.1Z"/>
                <path class="cls-13"
                      d="M163.82,55.79a14.36,14.36,0,0,1-1.39.38l.18-1.74a.6.6,0,0,0,.22-.54,10.28,10.28,0,0,1,2.1-2.57,16.53,16.53,0,0,0,2.13-1,3.33,3.33,0,0,1,1.71.2c1,.42,1,.87,1,1-.1.89-1.61,2.22-3.61,3.26A5.73,5.73,0,0,0,163.82,55.79Z"/>
                <path class="cls-13"
                      d="M159.26,78.16c-.45.06-.9.11-1.35.13.17-.55.32-1.1.48-1.65a.58.58,0,0,0,.34-.5,10.44,10.44,0,0,1,2.61-2.21,17.75,17.75,0,0,0,2.18-.61,3.48,3.48,0,0,1,1.73.49c.92.56.81,1,.77,1.11-.24.86-2,1.92-4.12,2.62A5.76,5.76,0,0,0,159.26,78.16Z"/>
                <path class="cls-15"
                      d="M150.08,76.45c.13-.38.8-.43,1.3-.43a3.55,3.55,0,0,1,1.62.38c.49.52,1,1,1.54,1.48a8.33,8.33,0,0,1,1.08,3c-.25.75-.49,1.51-.75,2.26C152.05,80.8,149.7,77.56,150.08,76.45Z"/>
                <path class="cls-15"
                      d="M157,81.56a10.56,10.56,0,0,1,2.72-2.1,20.32,20.32,0,0,0,2.22-.52,3.44,3.44,0,0,1,1.7.55c.89.6.76,1,.72,1.14-.44,1.33-4.56,3-8.25,3,.19-.54.36-1.09.55-1.64A.56.56,0,0,0,157,81.56Z"/>
                <path class="cls-15"
                      d="M161.65,48c0,.77-.05,1.54-.1,2.32-.39-.19-.77-.39-1.15-.59a5.45,5.45,0,0,0-2.18-1.36c-1.87-1.3-3.19-2.66-3.13-3.43,0-.36.64-.57,1-.66a3.42,3.42,0,0,1,1.76-.05c.62.38,1.27.74,1.91,1.06A9.11,9.11,0,0,1,161.65,48Z"/>
                <path class="cls-15"
                      d="M155.63,65.84c.55.49,1.13,1,1.71,1.38.12.16.23.33.34.51a9,9,0,0,1,1,2.38c-.18.76-.37,1.52-.56,2.29-.36-.25-.7-.51-1-.78a5.39,5.39,0,0,0-1.82-1.6c-1.61-1.59-2.69-3.15-2.5-3.9.09-.37.75-.47,1.13-.51A3.75,3.75,0,0,1,155.63,65.84Z"/>
                <path class="cls-13"
                      d="M161.75,44.71q-.6-.26-1.17-.54a5.43,5.43,0,0,0-2.26-1.27c-1.92-1.23-3.31-2.55-3.28-3.32,0-.36.61-.59,1-.7,3.1-1,5.14,2.35,5.75,3.54C161.75,43.18,161.76,43.94,161.75,44.71Z"/>
                <path class="cls-13"
                      d="M156.05,72.57a8.43,8.43,0,0,1,1.22,3c-.21.77-.43,1.53-.66,2.29-.35-.27-.7-.56-1-.85a5.33,5.33,0,0,0-1.71-1.64c-1.54-1.66-2.55-3.27-2.33-4,.11-.37.78-.45,1.16-.46a3.43,3.43,0,0,1,1.74.31C155,71.65,155.5,72.13,156.05,72.57Z"/>
                <path class="cls-13"
                      d="M159.81,64.66c-.14.76-.31,1.52-.46,2.28-.35-.23-.7-.46-1-.71a5.43,5.43,0,0,0-2-1.6c-1.65-1.51-2.77-3-2.62-3.75.08-.36.73-.5,1.11-.55a3.61,3.61,0,0,1,1.76.17c.56.46,1.15.89,1.75,1.29A8.62,8.62,0,0,1,159.81,64.66Z"/>
                <path class="cls-15"
                      d="M160.68,59.13c-.1.77-.23,1.53-.35,2.3-.36-.22-.73-.44-1.08-.68a5.65,5.65,0,0,0-2-1.46c-1.76-1.45-3-2.93-2.86-3.69.06-.37.7-.53,1.07-.59a3.58,3.58,0,0,1,1.77.1c.58.43,1.19.84,1.8,1.21A8.78,8.78,0,0,1,160.68,59.13Z"/>
                <path class="cls-13"
                      d="M161.29,53.57c-.07.77-.14,1.55-.22,2.32-.37-.2-.74-.41-1.1-.63a5.45,5.45,0,0,0-2.12-1.43c-1.8-1.38-3.06-2.79-3-3.55.05-.36.67-.54,1-.62a3.48,3.48,0,0,1,1.76,0q.91.62,1.86,1.14A8.89,8.89,0,0,1,161.29,53.57Z"/>
                <path class="cls-15"
                      d="M163.1,61.45a12.13,12.13,0,0,1-1.42.33c.09-.58.2-1.16.28-1.74a.6.6,0,0,0,.25-.51A10,10,0,0,1,164.43,57a17.29,17.29,0,0,0,2.18-.91,3.39,3.39,0,0,1,1.7.28c1,.46.94.9.92,1-.13.89-1.71,2.15-3.76,3.11A5.86,5.86,0,0,0,163.1,61.45Z"/>
                <path class="cls-10"
                      d="M162.26,42.17s-3.3-3-4.45-2.22.69,3.68.69,3.68-1.61.46-1.61,1.76S159,49.23,159,49.23s-2.22.61-2.15,1.91,2.92,4.61,2.92,4.61-3.22-.85-3.45.3,2,5,2,5-2.38-.31-2.6.61S158,66,158,66s-2.07-.69-3,.69,2,5.44,2,5.44-2.61-1.22-3.53-.23,2,5.45,2,5.45-3-1.38-3.6-.46,3,6.25,3,6.25-5.64-4.49-5.26-6.48,2.84-1.54,2.84-1.54-2.38-2.83-1.38-4a4.46,4.46,0,0,1,3-1.15s-2.61-2.84-1.84-4.22,2.83-1.38,2.83-1.38-2.3-2.84-1.84-4S156.05,59,156.05,59s-2.76-2.76-2.15-3.83,3.3-1.15,3.3-1.15-3.6-3-2.91-4.14,2.76-1.54,2.76-1.54l-2.61-3.68a6.93,6.93,0,0,1,2.38-1.91s-2.76-1.92-2.46-3.76,5.91-1.53,7.83,2.91"/>
                <path class="cls-10"
                      d="M165.31,39.14s1.84-.63,2.53.81-2.7,4.43-2.7,4.43,3.16-.17,3.28,1.38-3,4.31-3,4.31,2.76.69,2.82,1.73-4.78,4.31-4.78,4.31,4.49.52,4.55,1.78-5.18,4.37-5.18,4.37,3.16-.63,3.74,1-4.89,4.43-4.89,4.43,3.74.17,4,1.38-5.29,4.14-5.29,4.14,3.05.17,3.39,1.61S159,78.54,159,78.54s3.69.92,3.8,1.89-4.6,3.4-4.6,3.4,6.9-1.38,6.79-3-2.07-3-2.07-3,4-1.56,3.79-3.28-2.24-2.24-2.24-2.24,4-2.25,3.68-3.51-2.42-2.3-2.42-2.3,3.45-2,3.51-3.57-2.53-2.3-2.53-2.3,3.51-.92,3.05-3.85S167.15,55,167.15,55s3.28-2.53,2.88-4.37a1.93,1.93,0,0,0-2.19-1.56s2.76-2.24,2.59-3.68-2.59-2-2.59-2,2.93-1.78,2.76-4.2S166.75,38.05,165.31,39.14Z"/>
                <path class="cls-16"
                      d="M154.35,84.52a117,117,0,0,1-5.16,12,.69.69,0,0,0,.31.93.63.63,0,0,0,.3.07.69.69,0,0,0,.62-.38,118.83,118.83,0,0,0,5.21-12.06H156c3.55,0,8.93-1.57,9.73-4,.18-.57.27-1.68-1.27-2.72l-.33-.19c1.64-.75,2.92-1.73,3.24-2.85.16-.58.2-1.7-1.39-2.68l-.34-.18c1.59-.81,2.82-1.84,3.09-3,.14-.59.13-1.71-1.5-2.63l-.34-.15c1.55-.9,2.71-2,2.93-3.1.11-.6.06-1.73-1.63-2.58l-.35-.14c1.51-1,2.61-2.09,2.78-3.21.09-.61,0-1.74-1.74-2.52L168.5,55c1.45-1,2.5-2.2,2.62-3.32.07-.61-.08-1.74-1.85-2.45l-.37-.13c1.4-1.07,2.38-2.29,2.46-3.42,0-.61-.16-1.74-2-2.38a2.85,2.85,0,0,0-.39-.11c1.34-1.14,2.27-2.39,2.3-3.52,0-.62-.23-1.75-2.06-2.32a5,5,0,0,0-5.11,1.48c1.35-2.79,2.59-5.66,3.71-8.56a.7.7,0,0,0-.4-.9.69.69,0,0,0-.89.4c-1.07,2.78-2.26,5.53-3.54,8.21a118.26,118.26,0,0,0-1.9-16.77.69.69,0,0,0-1.36.26,117.31,117.31,0,0,1,1.85,15.74c-1.23-2.13-2.5-4.23-3.84-6.27a.69.69,0,0,0-1.15.76c1.6,2.43,3.12,4.95,4.55,7.51a5.24,5.24,0,0,0-5.58-1.66c-1.55.47-1.91,1.33-1.93,2,0,1.07.92,2.26,2.29,3.37l-.22,0c-1.58.41-2,1.26-2,1.9-.08,1,.82,2.27,2.13,3.43l-.22,0c-1.6.34-2,1.17-2.11,1.81-.12,1.05.72,2.3,2,3.5l-.23,0c-1.62.28-2.09,1.09-2.19,1.73-.17,1,.61,2.32,1.82,3.57a2,2,0,0,0-.25,0c-1.64.2-2.14,1-2.27,1.63-.21,1,.51,2.34,1.64,3.63h-.24c-1.66.14-2.19.92-2.35,1.55-.25,1,.41,2.35,1.48,3.69a2.26,2.26,0,0,0-.26,0c-1.66.07-2.23.83-2.42,1.45-.29,1,.31,2.36,1.32,3.74l-.27,0c-1.67,0-2.28.74-2.49,1.36C148,78.21,151.57,82.29,154.35,84.52ZM152.7,70.85a3.43,3.43,0,0,1,1.74.31c.52.49,1.06,1,1.61,1.41a8.43,8.43,0,0,1,1.22,3c-.21.77-.43,1.53-.66,2.29-.35-.27-.7-.56-1-.85a5.33,5.33,0,0,0-1.71-1.64c-1.54-1.66-2.55-3.27-2.33-4C151.65,70.94,152.32,70.86,152.7,70.85Zm1.18-5.24a3.75,3.75,0,0,1,1.75.23c.55.49,1.13,1,1.71,1.38.12.16.23.33.34.51a9,9,0,0,1,1,2.38c-.18.76-.37,1.52-.56,2.29-.36-.25-.7-.51-1-.78a5.39,5.39,0,0,0-1.82-1.6c-1.61-1.59-2.69-3.15-2.5-3.9C152.84,65.75,153.5,65.65,153.88,65.61Zm2.7-5.11c.56.46,1.15.89,1.75,1.29a8.62,8.62,0,0,1,1.48,2.87c-.14.76-.31,1.52-.46,2.28-.35-.23-.7-.46-1-.71a5.43,5.43,0,0,0-2-1.6c-1.65-1.51-2.77-3-2.62-3.75.08-.36.73-.5,1.11-.55A3.61,3.61,0,0,1,156.58,60.5Zm.68-5.39c.58.43,1.19.84,1.8,1.21a8.78,8.78,0,0,1,1.62,2.81c-.1.77-.23,1.53-.35,2.3-.36-.22-.73-.44-1.08-.68a5.65,5.65,0,0,0-2-1.46c-1.76-1.45-3-2.93-2.86-3.69.06-.37.7-.53,1.07-.59A3.58,3.58,0,0,1,157.26,55.11Zm.42-5.43q.91.62,1.86,1.14a8.89,8.89,0,0,1,1.75,2.75c-.07.77-.14,1.55-.22,2.32-.37-.2-.74-.41-1.1-.63a5.45,5.45,0,0,0-2.12-1.43c-1.8-1.38-3.06-2.79-3-3.55.05-.36.67-.54,1-.62A3.48,3.48,0,0,1,157.68,49.68Zm.17-5.45c.62.38,1.27.74,1.91,1.06A9.11,9.11,0,0,1,161.65,48c0,.77-.05,1.54-.1,2.32-.39-.19-.77-.39-1.15-.59a5.45,5.45,0,0,0-2.18-1.36c-1.87-1.3-3.19-2.66-3.13-3.43,0-.36.64-.57,1-.66A3.42,3.42,0,0,1,157.85,44.23Zm3.9-1.81c0,.76,0,1.52,0,2.29q-.6-.26-1.17-.54a5.43,5.43,0,0,0-2.26-1.27c-1.92-1.23-3.31-2.55-3.28-3.32,0-.36.61-.59,1-.7C159.1,37.86,161.14,41.23,161.75,42.42Zm4.91.77a5.61,5.61,0,0,0-2.22,1.19,12.89,12.89,0,0,1-1.31.48c0-.59,0-1.19,0-1.78a.63.63,0,0,0,.15-.53c.89-1.9,2.73-4.7,5.57-3.87,1.09.34,1.08.81,1.08,1C169.9,40.54,168.53,42,166.66,43.19ZM166.54,49a5.59,5.59,0,0,0-2.27,1.09,14.05,14.05,0,0,1-1.35.43c0-.59.05-1.17.08-1.76a.64.64,0,0,0,.19-.54,9.94,9.94,0,0,1,2-2.66,18.58,18.58,0,0,0,2.07-1.09,3.29,3.29,0,0,1,1.71.13c1.07.38,1,.84,1,1C169.92,46.49,168.48,47.88,166.54,49Zm-.4,5.79a5.73,5.73,0,0,0-2.32,1,14.36,14.36,0,0,1-1.39.38l.18-1.74a.6.6,0,0,0,.22-.54,10.28,10.28,0,0,1,2.1-2.57,16.53,16.53,0,0,0,2.13-1,3.33,3.33,0,0,1,1.71.2c1,.42,1,.87,1,1C169.65,52.43,168.14,53.76,166.14,54.8Zm-.67,5.76a5.86,5.86,0,0,0-2.37.89,12.13,12.13,0,0,1-1.42.33c.09-.58.2-1.16.28-1.74a.6.6,0,0,0,.25-.51A10,10,0,0,1,164.43,57a17.29,17.29,0,0,0,2.18-.91,3.39,3.39,0,0,1,1.7.28c1,.46.94.9.92,1C169.1,58.34,167.52,59.6,165.47,60.56Zm-.87,5.69a5.81,5.81,0,0,0-2.57.84,12.51,12.51,0,0,1-1.36.25c.12-.57.24-1.13.35-1.7a.55.55,0,0,0,.3-.53,10.06,10.06,0,0,1,2.33-2.38,17.5,17.5,0,0,0,2.23-.82,3.53,3.53,0,0,1,1.69.34c1,.5.9.93.87,1.07C168.27,64.19,166.67,65.38,164.6,66.25ZM163.32,72a5.83,5.83,0,0,0-2.47.69,14,14,0,0,1-1.43.2c.14-.55.27-1.11.41-1.67a.61.61,0,0,0,.32-.51,10.38,10.38,0,0,1,2.45-2.28,17,17,0,0,0,2.29-.74,3.53,3.53,0,0,1,1.65.41c1,.54.86,1,.83,1.1C167.16,70,165.46,71.16,163.32,72Zm-1.42,5.59a5.76,5.76,0,0,0-2.64.62c-.45.06-.9.11-1.35.13.17-.55.32-1.1.48-1.65a.58.58,0,0,0,.34-.5,10.44,10.44,0,0,1,2.61-2.21,17.75,17.75,0,0,0,2.18-.61,3.48,3.48,0,0,1,1.73.49c.92.56.81,1,.77,1.11C165.78,75.78,164.06,76.84,161.9,77.54Zm-5.75,6.13c.19-.54.36-1.09.55-1.64a.56.56,0,0,0,.34-.47,10.56,10.56,0,0,1,2.72-2.1,20.32,20.32,0,0,0,2.22-.52,3.44,3.44,0,0,1,1.7.55c.89.6.76,1,.72,1.14C164,82,159.84,83.64,156.15,83.67Zm-6.07-7.22c.13-.38.8-.43,1.3-.43a3.55,3.55,0,0,1,1.62.38c.49.52,1,1,1.54,1.48a8.33,8.33,0,0,1,1.08,3c-.25.75-.49,1.51-.75,2.26C152.05,80.8,149.7,77.56,150.08,76.45Z"/>
            </g>
        </g>
    </g>
</svg>
