<svg fill="#ffffff" height="512pt" viewBox="0 -54 512 511" width="512pt" xmlns="http://www.w3.org/2000/svg"><path d="m433.996094 337.816406c-25.757813 0-39.246094-6.671875-51.148438-12.554687-10.253906-5.070313-19.109375-9.445313-37.855468-9.445313-18.742188 0-27.597657 4.375-37.851563 9.445313-11.902344 5.882812-25.394531 12.554687-51.148437 12.554687-25.753907 0-39.246094-6.671875-51.144532-12.554687-10.253906-5.070313-19.109375-9.445313-37.851562-9.445313-18.742188 0-27.597656 4.375-37.851563 9.445313-11.902343 5.882812-25.390625 12.554687-51.148437 12.554687-25.753906 0-39.242188-6.671875-51.144532-12.554687-8.011718-3.960938-15.167968-7.5-26.851562-8.855469v86.425781h512v-86.425781c-11.6875 1.355469-18.84375 4.894531-26.855469 8.855469-11.902343 5.882812-25.390625 12.554687-51.148437 12.554687zm0 0"/><path d="m0 235.601562v50.65625c18.84375 1.582032 30.066406 7.128907 40.144531 12.109376 10.253907 5.070312 19.109375 9.449218 37.851563 9.449218 18.746094 0 27.601562-4.378906 37.851562-9.449218 11.902344-5.882813 25.390625-12.550782 51.148438-12.550782 25.753906 0 39.242187 6.667969 51.144531 12.550782 10.253906 5.070312 19.105469 9.449218 37.851563 9.449218 18.746093 0 27.601562-4.378906 37.851562-9.449218 11.902344-5.882813 25.394531-12.550782 51.148438-12.550782 25.753906 0 39.246093 6.667969 51.148437 12.550782 10.253906 5.070312 19.109375 9.449218 37.855469 9.449218 18.742187 0 27.601562-4.378906 37.851562-9.449218 10.082032-4.980469 21.304688-10.527344 40.148438-12.109376v-50.65625zm0 0"/><path d="m512 131.882812h-206.542969c18.523438-6.082031 37.816407-15.632812 52.8125-30.628906 29.976563-29.976562 36.050781-77.265625 37.136719-100.753906-23.476562 1.085938-70.769531 7.15625-100.75 37.136719-26.515625 26.515625-34.402344 67.902343-36.648438 94.246093h-30.121093c1.511719-19.828124 5.890625-47.960937 17.917969-74.550781-4.898438-2.042969-10.191407-3.125-15.632813-3.125-22.386719 0-40.597656 18.210938-40.597656 40.597657 0 16.511718 9.910156 30.742187 24.09375 37.078124h-213.667969v73.71875h512zm0 0"/></svg>