<svg id="e8e370f4-8fb0-4ed1-9ceb-86ee4fa027f4" xmlns="http://www.w3.org/2000/svg" viewBox="0 0 740.85684 511.67483"><defs><style>.cls-1{fill:#fff;}.cls-2{fill:#3f3d56;}.cls-3{fill:#c6c9c7;}.cls-4{fill:#711604;}.cls-5{fill:#f0d458;}.cls-6{fill:#a0616a;}.cls-7{fill:#2a0800;}.cls-8{fill:#c8a919;}.cls-9{fill:#ffe1c2;}</style></defs><path class="cls-1" d="M733.85681,193.67482h-.20019l-114.79981,49.02-157.06982,67.07a5.06614,5.06614,0,0,1-3.88037.02l-162.04981-67.23-117.62012-48.8-.17968-.08h-.2002a7.00776,7.00776,0,0,0-7,7v304a7.00778,7.00778,0,0,0,7,7h556a7.00778,7.00778,0,0,0,7-7v-304A7.00778,7.00778,0,0,0,733.85681,193.67482Z" transform="translate(0.00003 -0.00001)"/><path class="cls-2" d="M735.85608,195.67482a.99691.99691,0,0,1-.5708-.1792L458.72638,2.89211a5.01544,5.01544,0,0,0-5.72852.00976L178.43115,195.49367a1.00019,1.00019,0,0,1-1.14868-1.6377L451.84943,1.26418a7.02215,7.02215,0,0,1,8.02-.01319L736.42828,193.854a1.0002,1.0002,0,0,1-.57226,1.8208Z" transform="translate(0.00003 -0.00001)"/><polygon class="cls-3" points="194.121 202.502 456.132 8.319 720.132 216.319 469.632 364.819 333.632 333.819 194.121 202.502"/><path class="cls-4" d="M345.11237,456.54109H215.672a6.04737,6.04737,0,1,1-.01789-12.09472H345.11237a6.04737,6.04737,0,0,1,.01788,12.09472Z" transform="translate(0.00003 -0.00001)"/><path class="cls-4" d="M262.11234,430.54109H215.672a6.04737,6.04737,0,1,1-.01789-12.09472h46.4582a6.04737,6.04737,0,0,1,.01788,12.09472Z" transform="translate(0.00003 -0.00001)"/><path class="cls-1" d="M459.817,310.6595a7.56361,7.56361,0,0,1-2.86915-.562L295.357,243.04866V33.17467a7.00818,7.00818,0,0,1,7-7h310a7.00817,7.00817,0,0,1,7,7V243.19514l-.30371.12989L462.773,310.06474A7.61605,7.61605,0,0,1,459.817,310.6595Z" transform="translate(0.00003 -0.00001)"/><path class="cls-2" d="M459.817,311.159a8.07176,8.07176,0,0,1-3.05957-.59863L294.857,243.38261V33.17462a7.50851,7.50851,0,0,1,7.5-7.5h310a7.50851,7.50851,0,0,1,7.5,7.5v210.3506l-156.88769,66.999A8.10933,8.10933,0,0,1,459.817,311.159Zm-162.96-69.1123L457.52,308.71126a6.11818,6.11818,0,0,0,4.668-.02783L617.857,242.20491V33.17462a5.50653,5.50653,0,0,0-5.5-5.5h-310a5.50654,5.50654,0,0,0-5.5,5.5Z" transform="translate(0.00003 -0.00001)"/><path class="cls-2" d="M733.85681,193.67482h-.20019l-114.79981,49.02-157.06982,67.07a5.06614,5.06614,0,0,1-3.88037.02l-162.04981-67.23-117.62012-48.8-.17968-.08h-.2002a7.00776,7.00776,0,0,0-7,7v304a7.00778,7.00778,0,0,0,7,7h556a7.00778,7.00778,0,0,0,7-7v-304A7.00778,7.00778,0,0,0,733.85681,193.67482Zm5,311a5.002,5.002,0,0,1-5,5h-556a5.002,5.002,0,0,1-5-5v-304a5.01106,5.01106,0,0,1,4.81006-5l118.18994,49.04,161.28027,66.92a7.12085,7.12085,0,0,0,5.43995-.03l156.27978-66.74,115.2002-49.19a5.01621,5.01621,0,0,1,4.7998,5Z" transform="translate(0.00003 -0.00001)"/><path class="cls-4" d="M434.66,104.62624h-110a8,8,0,0,1,0-16h110a8,8,0,0,1,0,16Z" transform="translate(0.00003 -0.00001)"/><path class="cls-4" d="M377.66,70.62624h-53a8,8,0,0,1,0-16h53a8,8,0,1,1,0,16Z" transform="translate(0.00003 -0.00001)"/><path class="cls-3" d="M539.62854,184.62624h-168a8,8,0,0,1,0-16h168a8,8,0,0,1,0,16Z" transform="translate(0.00003 -0.00001)"/><path class="cls-3" d="M539.62854,221.62624h-168a8,8,0,0,1,0-16h168a8,8,0,0,1,0,16Z" transform="translate(0.00003 -0.00001)"/><path class="cls-5" d="M40.948,230.97841a4.508,4.508,0,0,1-4.41113-3.61572l-3.63868-18.13916a37.00031,37.00031,0,1,1,72.55567-14.55225l3.63769,18.13916a4.50456,4.50456,0,0,1-3.52636,5.29688L41.83472,230.89A4.51113,4.51113,0,0,1,40.948,230.97841Z" transform="translate(0.00003 -0.00001)"/><polygon class="cls-6" points="154.088 501.059 142.656 501.058 137.22 456.962 154.092 456.963 154.088 501.059"/><path class="cls-7" d="M134.49,497.79126h22.04782v13.882H120.60812A13.88193,13.88193,0,0,1,134.49,497.79126Z" transform="translate(0.00003 -0.00001)"/><polygon class="cls-6" points="34.969 500.944 24.442 496.486 36.63 453.76 52.166 460.341 34.969 500.944"/><path class="cls-7" d="M18.19668,490.29349l20.30195,8.5987h0l-5.414,12.78264h0L0,497.66212H0a13.882,13.882,0,0,1,18.19667-7.36865Z" transform="translate(0.00003 -0.00001)"/><circle class="cls-6" cx="70.22364" cy="201.87182" r="24.56103"/><path class="cls-8" d="M71.38614,313.6035l-.252-.81836c-6.69262-21.75439-13.61035-44.23975-20.53784-65.62549l-.1875-.57715.42578-.43261c10.75293-10.93848,30.89722-15.30176,46.85865-10.146,16.064,5.18555,27.134,19.731,25.75024,33.83447a36.13087,36.13087,0,0,0,6.428,23.89307l.64087.92969-1.00195.52344A181.87078,181.87078,0,0,1,72.234,313.48042Z" transform="translate(0.00003 -0.00001)"/><path class="cls-9" d="M41.76431,493.02052a4.98655,4.98655,0,0,1-2.49341-.67285l-13.26733-7.66211a4.97281,4.97281,0,0,1-2.03027-6.44629L53.454,408.28712,75.98477,306.26271l41.06079-14.93066.37329.17187c44.02173,20.22168,40.6189,165.165,39.48951,194.01563a5.005,5.005,0,0,1-4.55835,4.77636l-12.34717,1.61328a5.04586,5.04586,0,0,1-5.40918-4.13671l-25.207-112.6543a1.00107,1.00107,0,0,0-.82251-.86816.97671.97671,0,0,0-1.04224.49218L46.13663,490.45705a4.97951,4.97951,0,0,1-3.04956,2.38476A5.04164,5.04164,0,0,1,41.76431,493.02052Z" transform="translate(0.00003 -0.00001)"/><path class="cls-6" d="M56.51114,390.21413a9.377,9.377,0,0,0-3.87036-13.84778l.67145-21.41748-12.91584-3.58246L39.873,381.62532a9.42778,9.42778,0,0,0,16.63815,8.58875Z" transform="translate(0.00003 -0.00001)"/><path class="cls-4" d="M40.06412,367.57521l-.75806-.00391a4.96984,4.96984,0,0,1-4.92309-4.60644c-1.23877-15.95117-5.043-70.28613-1.97925-99.74463A20.7639,20.7639,0,0,1,55.97791,245.712q.30628.04518.61111.09955l.78857.17432-.00586.8081c-.28076,38.7583-.26269,77.29-.24511,114.55371a4.99852,4.99852,0,0,1-3.90528,4.88965A64.50985,64.50985,0,0,1,40.06412,367.57521Z" transform="translate(0.00003 -0.00001)"/><path class="cls-4" d="M69.4664,414.05861A13.58216,13.58216,0,0,1,56.04355,402.127L57.1312,312.6758l-17.779-44.96973a26.40459,26.40459,0,0,1,16.98462-28.06348l4.75293-1.78271a7.28575,7.28575,0,0,1,9.37973,4.26437l.00992.02661,18.33276,49.49756.00464.07227c1.27124,19.70019,7.00855,117.749-4.43066,120.67386a63.11906,63.11906,0,0,1-14.7898,1.66308Z" transform="translate(0.00003 -0.00001)"/><path class="cls-6" d="M175.08316,356.44289a9.37708,9.37708,0,0,1-4.41049-13.68531l-12.37439-17.49377,8.79684-10.11276,17.12809,24.95a9.42779,9.42779,0,0,1-9.14,16.3418Z" transform="translate(0.00003 -0.00001)"/><path class="cls-4" d="M162.72647,333.96083a4.037,4.037,0,0,1-3.24621-1.8078l-.065-.09845c-20.47509-30.9902-41.64715-63.03519-63.10519-94.98041l-.231-.34424.29529-.291a19.09783,19.09783,0,0,1,14.08426-5.10754,18.82012,18.82012,0,0,1,13.90707,6.52325c18.75144,22.81534,45.51337,70.16922,53.26874,84.13992a3.962,3.962,0,0,1-1.23383,5.23139,63.421,63.421,0,0,1-12.16522,6.47168A3.82589,3.82589,0,0,1,162.72647,333.96083Z" transform="translate(0.00003 -0.00001)"/><path class="cls-4" d="M155.85242,394.12209c-12.26416.00781-56.1438-84.48243-64.81543-101.41993l-.075-.20507L81.3692,240.669a7.2839,7.2839,0,0,1,5.83627-8.4881l.03043-.00555L92.232,231.272a26.40512,26.40512,0,0,1,28.95972,15.40674l12.53467,52.6875,41.91309,71.21191a13.59135,13.59135,0,0,1-5.47681,17.292,63.07487,63.07487,0,0,1-13.55567,6.14649,2.67091,2.67091,0,0,1-.75463.10547Z" transform="translate(0.00003 -0.00001)"/><path class="cls-5" d="M89.29956,202.08437h-49.5v-6a25.02817,25.02817,0,0,1,25-25h4a25.02817,25.02817,0,0,1,25,25v1.5A4.50493,4.50493,0,0,1,89.29956,202.08437Z" transform="translate(0.00003 -0.00001)"/></svg>